<svg width="73" height="69" viewBox="0 0 73 69" fill="none" xmlns="http://www.w3.org/2000/svg">
<circle cx="32.5" cy="32.5" r="32.5" fill="#FAEBE7"/>
<g clip-path="url(#clip0_120_42)">
<path d="M48 41.5002C47.8783 41.5002 47.7575 41.4735 47.645 41.421L33.4783 34.7544C33.1867 34.6169 33 34.3227 33 34.0002C33 33.6777 33.1867 33.3835 33.4783 33.246L47.645 26.5794C47.87 26.4735 48.13 26.4735 48.355 26.5794L62.5217 33.246C62.8133 33.3835 63 33.6777 63 34.0002C63 34.3227 62.8133 34.6169 62.5217 34.7544L48.355 41.421C48.2425 41.4735 48.1217 41.5002 48 41.5002ZM35.7908 34.0002L48 39.746L60.2092 34.0002L48 28.2544L35.7908 34.0002Z" fill="black"/>
<path d="M48 48.1665C47.8725 48.1665 47.7442 48.1373 47.6275 48.079L37.6275 43.079C37.345 42.9373 37.1667 42.649 37.1667 42.3331V35.9606C37.1667 35.6756 37.3125 35.4098 37.5533 35.2573C37.7942 35.104 38.0967 35.0865 38.3542 35.2065L48 39.7456L57.645 35.2065C57.9033 35.0856 58.2058 35.104 58.4458 35.2573C58.6875 35.4098 58.8333 35.6756 58.8333 35.9606V42.3331C58.8333 42.649 58.655 42.9373 58.3725 43.079L48.3725 48.079C48.2558 48.1373 48.1275 48.1665 48 48.1665ZM38.8333 41.8181L48 46.4015L57.1667 41.8181V37.274L48.355 41.4206C48.13 41.5265 47.87 41.5265 47.645 41.4206L38.8333 37.274V41.8181Z" fill="black"/>
<path d="M62.1667 34.8332H48C47.54 34.8332 47.1667 34.4598 47.1667 33.9998C47.1667 33.5398 47.54 33.1665 48 33.1665H62.1667C62.6267 33.1665 63 33.5398 63 33.9998C63 34.4598 62.6267 34.8332 62.1667 34.8332Z" fill="black"/>
<path d="M62.1667 42.3332C61.7067 42.3332 61.3333 41.9598 61.3333 41.4998V33.9998C61.3333 33.5398 61.7067 33.1665 62.1667 33.1665C62.6267 33.1665 63 33.5398 63 33.9998V41.4998C63 41.9598 62.6267 42.3332 62.1667 42.3332Z" fill="black"/>
<path d="M48 36.5C47.54 36.5 47.1667 36.1267 47.1667 35.6667V32.3333C47.1667 31.8733 47.54 31.5 48 31.5C48.46 31.5 48.8333 31.8733 48.8333 32.3333V35.6667C48.8333 36.1267 48.46 36.5 48 36.5Z" fill="black"/>
<path d="M60.4992 44.8335C60.3408 44.8335 60.18 44.7885 60.0375 44.6935C59.655 44.4385 59.5517 43.921 59.8067 43.5377L61.4733 41.0377C61.7283 40.6544 62.245 40.5502 62.6292 40.8069C63.0117 41.0619 63.115 41.5794 62.86 41.9627L61.1933 44.4627C61.0325 44.7035 60.7683 44.8335 60.4992 44.8335Z" fill="black"/>
<path d="M63.8342 44.8335C63.565 44.8335 63.3008 44.7035 63.14 44.4627L61.4733 41.9627C61.2183 41.5802 61.3217 41.0619 61.7042 40.8069C62.0867 40.5502 62.6042 40.6544 62.86 41.0377L64.5267 43.5377C64.7817 43.9202 64.6783 44.4385 64.2958 44.6935C64.1533 44.7885 63.9925 44.8335 63.8342 44.8335Z" fill="black"/>
<path d="M48 43.9997C47.54 43.9997 47.1667 43.6263 47.1667 43.1663V40.6663C47.1667 40.2063 47.54 39.833 48 39.833C48.46 39.833 48.8333 40.2063 48.8333 40.6663V43.1663C48.8333 43.6263 48.46 43.9997 48 43.9997Z" fill="black"/>
<path d="M72.1667 51.5002H23.8333C23.3733 51.5002 23 51.1268 23 50.6668V23.1677C23 21.3293 24.4958 19.8335 26.3342 19.8335H69.6658C71.5042 19.8335 73 21.3293 73 23.1677V50.6668C73 51.1268 72.6267 51.5002 72.1667 51.5002ZM24.6667 49.8335H71.3333V23.1677C71.3333 22.2477 70.5858 21.5002 69.6658 21.5002H26.3342C25.4142 21.5002 24.6667 22.2477 24.6667 23.1677V49.8335Z" fill="black"/>
<path d="M69.6658 58.1668H26.3342C24.4958 58.1668 23 56.671 23 54.8327V50.6668C23 50.2068 23.3733 49.8335 23.8333 49.8335H72.1667C72.6267 49.8335 73 50.2068 73 50.6668V54.8327C73 56.671 71.5042 58.1668 69.6658 58.1668ZM24.6667 51.5002V54.8327C24.6667 55.7527 25.4142 56.5002 26.3342 56.5002H69.6658C70.5858 56.5002 71.3333 55.7527 71.3333 54.8327V51.5002H24.6667Z" fill="black"/>
<path d="M50.5 54.8332H45.5C45.04 54.8332 44.6667 54.4598 44.6667 53.9998C44.6667 53.5398 45.04 53.1665 45.5 53.1665H50.5C50.96 53.1665 51.3333 53.5398 51.3333 53.9998C51.3333 54.4598 50.96 54.8332 50.5 54.8332Z" fill="black"/>
<path d="M68.8333 51.5003H27.1667C26.7067 51.5003 26.3333 51.127 26.3333 50.667V24.0003C26.3333 23.5403 26.7067 23.167 27.1667 23.167H68.8333C69.2933 23.167 69.6667 23.5403 69.6667 24.0003V50.667C69.6667 51.127 69.2933 51.5003 68.8333 51.5003ZM28 49.8337H68V24.8337H28V49.8337Z" fill="black"/>
<path d="M58.8334 68.1665H37.1667C35.7883 68.1665 34.6667 67.0448 34.6667 65.6665C34.6667 64.2882 35.7883 63.1665 37.1667 63.1665H58.8334C60.2117 63.1665 61.3334 64.2882 61.3334 65.6665C61.3334 67.0448 60.2117 68.1665 58.8334 68.1665ZM37.1667 64.8332C36.7075 64.8332 36.3333 65.2073 36.3333 65.6665C36.3333 66.1257 36.7075 66.4998 37.1667 66.4998H58.8334C59.2925 66.4998 59.6667 66.1257 59.6667 65.6665C59.6667 65.2073 59.2925 64.8332 58.8334 64.8332H37.1667Z" fill="black"/>
<path d="M57.1667 64.8333H38.8333C38.3733 64.8333 38 64.46 38 64C38 63.54 38.3733 63.1667 38.8333 63.1667C41.5983 63.1667 43 61.2042 43 57.3333C43 56.8733 43.3733 56.5 43.8333 56.5H52.1667C52.6267 56.5 53 56.8733 53 57.3333C53 61.2042 54.4017 63.1667 57.1667 63.1667C57.6267 63.1667 58 63.54 58 64C58 64.46 57.6267 64.8333 57.1667 64.8333ZM42.8925 63.1667H53.1083C52.0817 62.03 51.4775 60.3375 51.3567 58.1667H44.6442C44.5225 60.3375 43.9192 62.03 42.8925 63.1667Z" fill="black"/>
</g>
<defs>
<clipPath id="clip0_120_42">
<rect width="50" height="50" fill="white" transform="translate(23 19)"/>
</clipPath>
</defs>
</svg>
