<svg width="84" height="68" viewBox="0 0 84 68" fill="none" xmlns="http://www.w3.org/2000/svg">
<circle cx="32.5" cy="32.5" r="32.5" fill="#FAEBE7"/>
<path d="M83.1344 66.2389H75.8568C78.5586 63.8295 78.3245 59.0661 75.5685 56.7799C76.1517 56.8083 76.8162 56.6096 76.8162 55.9011C76.8162 54.5384 76.36 53.4165 75.4606 52.5669C74.9364 52.0718 74.3125 51.7266 73.6814 51.4856C73.9149 51.1011 74.0496 50.6501 74.0496 50.1682C74.0496 48.765 72.9081 47.6234 71.505 47.6234C70.1019 47.6234 68.9604 48.765 68.9604 50.1682C68.9604 50.4486 69.0067 50.7182 69.0907 50.9707H67.6487C67.6604 48.1928 67.9336 45.2478 67.2279 42.5357C65.9648 37.6806 62.0344 33.867 57.1731 32.6707V30.5771C60.4442 29.3071 62.7702 26.1275 62.7702 22.4128C62.7702 19.3068 61.0696 16.3839 58.3853 14.8305C58.6759 14.2027 58.8273 13.5186 58.8273 12.813C58.8274 10.1591 56.6686 8 54.0149 8C51.3613 8 49.2024 10.1591 49.2024 12.8129C49.2024 13.5138 49.3556 14.2003 49.6461 14.8294C47.027 16.3446 45.2597 19.1752 45.2597 22.4127C45.2597 26.0666 47.51 29.2034 50.6967 30.5137V32.702C47.9213 33.3602 46.1214 34.7185 46.0401 34.7808C46.0398 34.7809 46.0397 34.7811 46.0395 34.7812C45.383 35.2441 44.7613 35.7675 44.1918 36.3389C43.4103 37.1228 44.6289 38.3903 45.4367 37.5797C45.7003 37.3154 45.9769 37.0633 46.2635 36.8239C47.769 39.3794 50.6841 41.0332 53.849 41.0332C56.9998 41.0332 59.9117 39.3148 61.4162 36.6628C64.2639 38.9308 65.9273 42.365 65.9117 46.0443L65.891 50.9706H64.7852C63.6541 50.9706 63.6522 52.7283 64.7852 52.7283H69.4382V55.3293C68.322 55.4178 67.2131 55.5896 66.117 55.8161C65.6266 55.9175 63.9753 56.2782 63.9616 56.2919C63.9454 56.308 61.8497 55.3761 61.9452 52.1316C61.9454 52.123 61.9455 52.1144 61.9455 52.1057V44.1709C61.9455 43.0399 60.1878 43.038 60.1878 44.1709V52.0931C60.1176 54.5911 61.0698 56.1053 61.9374 56.9611C59.7267 57.7086 57.0662 58.8247 54.077 60.4901C50.9948 58.7695 48.2208 57.611 45.8396 56.833C46.6856 55.9646 47.5805 54.4681 47.5125 52.0434V44.1212C47.5125 42.9902 45.7547 42.9883 45.7547 44.1212V52.056C45.7547 52.0647 45.7549 52.0732 45.7551 52.0819C45.8424 55.0457 44.0955 56.063 43.7771 56.2233C41.5276 55.6297 39.7437 55.3967 38.5249 55.3125V52.7283H43.1779C44.3091 52.7283 44.3168 50.9706 43.1779 50.9706H41.8994C41.8945 50.5828 41.8871 50.1947 41.8797 49.8155C41.8209 46.8081 41.7652 43.9674 42.9205 41.2628C43.3648 40.2227 41.7489 39.5303 41.3041 40.5723C40.0005 43.624 40.0623 46.7891 40.1222 49.8499C40.1295 50.2185 40.1366 50.5956 40.1414 50.9705H38.8721C38.9563 50.718 39.0024 50.4484 39.0024 50.168C39.0024 48.7648 37.861 47.6232 36.4579 47.6232C35.0547 47.6232 33.9133 48.7648 33.9133 50.168C33.9133 50.6498 34.0479 51.1008 34.2815 51.4852C33.6504 51.7263 33.0266 52.0715 32.5024 52.5666C31.6029 53.4161 31.1467 54.538 31.1467 55.9007C31.1467 56.662 31.8767 56.8065 32.477 56.7796C29.8064 59.298 29.3319 63.599 32.1552 66.2385H24.8955C24.4101 66.2385 24.0166 66.632 24.0166 67.1174C24.0166 67.6028 24.4101 67.9963 24.8955 67.9963C24.8955 67.9963 63.3894 67.9849 63.9122 67.9849C64.9682 67.9849 64.7876 66.2385 63.7693 66.2385C63.7693 66.2385 51.5846 66.1833 48.5077 66.1935C55.1727 61.2499 60.8265 59.019 64.4906 58.015C68.1136 57.0223 70.5074 57.0052 71.1478 57.033C73.7476 57.1464 75.8916 58.7285 76.0108 61.5082C76.1149 63.931 74.1911 65.9974 71.8101 66.2385H69.0101C67.9105 66.2385 67.828 67.8928 68.9123 67.9925C69.0589 68.006 83.1344 67.9963 83.1344 67.9963C84.2654 67.9966 84.2673 66.2389 83.1344 66.2389ZM50.9602 12.8129C50.9602 11.1283 52.3305 9.75771 54.0149 9.75771C55.6994 9.75771 57.0697 11.1283 57.0697 12.8129C57.0697 13.2662 56.9698 13.7048 56.7811 14.1069C55.9109 13.8163 54.9816 13.6564 54.0149 13.6564C53.0482 13.6564 52.1186 13.8163 51.2484 14.107C51.0599 13.7042 50.9602 13.2635 50.9602 12.8129ZM54.0149 15.4142C56.1011 15.4142 57.9758 16.3331 59.2589 17.7861C57.5594 20.9724 55.0778 22.7494 51.8739 23.0686C49.2974 23.3257 47.1771 22.5124 47.1497 22.5017C47.1064 22.4847 47.0625 22.4724 47.0185 22.4626C47.0184 22.4458 47.0173 22.4294 47.0173 22.4127C47.0174 18.5537 50.1564 15.4142 54.0149 15.4142ZM47.305 24.395C48.0752 24.6089 49.3395 24.877 50.8414 24.877C51.206 24.877 51.5848 24.8612 51.9737 24.8249C54.4934 24.59 57.8761 23.4339 60.3427 19.4281C60.7716 20.334 61.0126 21.3455 61.0126 22.4127C61.0126 26.2717 57.8735 29.4111 54.0151 29.4111C50.8448 29.4111 48.162 27.2913 47.305 24.395ZM53.8491 39.2756C51.247 39.2756 48.8625 37.9015 47.6969 35.7934C48.4554 35.341 49.8956 34.6101 51.7307 34.2814C52.1497 34.2064 52.4546 33.842 52.4546 33.4164V31.0267C52.9614 31.1184 53.4822 31.1688 54.0151 31.1688C54.4918 31.1688 54.9593 31.129 55.4156 31.0553V33.3779C55.4156 33.7998 55.7155 34.1623 56.1301 34.2412C57.1002 34.426 58.5025 34.8205 59.964 35.6609C58.7924 37.8491 56.4215 39.2756 53.8491 39.2756ZM74.9522 55.0222H71.1958V52.7284C72.0695 52.802 73.4104 53.0482 74.2537 53.8448C74.5972 54.1693 74.8287 54.5584 74.9522 55.0222ZM71.5052 49.3813C71.9392 49.3813 72.2921 49.7343 72.2921 50.1684C72.2921 50.6024 71.9392 50.9553 71.5052 50.9553C71.0713 50.9553 70.7184 50.6023 70.7184 50.1684C70.7184 49.7344 71.0713 49.3813 71.5052 49.3813ZM36.458 49.3813C36.8919 49.3813 37.2448 49.7343 37.2448 50.1684C37.2448 50.6024 36.8919 50.9553 36.458 50.9553C36.024 50.9553 35.6711 50.6023 35.6711 50.1684C35.6711 49.7344 36.024 49.3813 36.458 49.3813ZM33.7055 53.8485C34.5542 53.0436 35.8941 52.7981 36.7673 52.7263V55.0222H33.011C33.1339 54.5602 33.3642 54.1722 33.7055 53.8485ZM32.9259 58.8222C33.6255 57.919 35.0316 57.0988 36.8688 57.0385C37.4706 57.0187 43.4902 56.842 52.3005 61.5239C52.0349 61.6848 51.7676 61.8488 51.4977 62.0184C50.5921 61.959 41.9481 61.5207 39.602 66.2118C38.3654 66.2075 37.1286 66.1982 35.8995 66.1809C32.419 65.8385 30.8694 61.4772 32.9259 58.8222ZM45.7379 66.2044C44.4073 66.2098 43.0618 66.2143 41.7101 66.2149C42.8803 64.9014 44.9707 64.2939 46.6831 64.0136C47.4417 63.8894 48.1834 63.8192 48.8468 63.7815C47.9099 64.4393 46.9526 65.1481 45.9768 65.9138C45.8733 65.9949 45.794 66.0948 45.7379 66.2044Z" fill="#983E3E"/>
</svg>
