<svg width="69" height="68" viewBox="0 0 69 68" fill="none" xmlns="http://www.w3.org/2000/svg">
<circle cx="32.5" cy="32.5" r="32.5" fill="#FAEBE7"/>
<path d="M68.2657 24.0859H31.8375C31.432 24.0859 31.1031 24.4147 31.1031 24.8203C31.1031 25.2259 31.432 25.5547 31.8375 25.5547H67.5313V49.8737H56.3816C55.976 49.8737 55.6472 50.2025 55.6472 50.6081C55.6472 51.0137 55.976 51.3425 56.3816 51.3425H67.5313V53.5138H41.825C41.4195 53.5138 41.0906 53.8426 41.0906 54.2481C41.0906 54.6537 41.4195 54.9825 41.825 54.9825H54.0123L61.4932 61.4288C62.1314 61.9787 63.0821 62.0681 63.8123 61.6481C64.4765 61.2663 64.8712 60.5193 64.8156 59.7557C64.7826 59.3044 64.5945 58.8715 64.2878 58.5389L61.009 54.9825H68.2657C68.6712 54.9825 69 54.6537 69 54.2481V24.8204C69 24.4147 68.6712 24.0859 68.2657 24.0859ZM63.2079 59.5346C63.3777 59.7187 63.399 60.0028 63.2587 60.21C63.0793 60.4747 62.694 60.5247 62.4522 60.3162L56.2625 54.9826H59.0113L63.2079 59.5346Z" fill="black"/>
<path d="M38.8874 53.5147H20.4688V51.3435H53.4438C53.8494 51.3435 54.1782 51.0146 54.1782 50.6091C54.1782 50.2035 53.8494 49.8747 53.4438 49.8747H20.4688V25.5557H28.8999C29.3055 25.5557 29.6343 25.2269 29.6343 24.8213C29.6343 24.4157 29.3055 24.0869 28.8999 24.0869H19.7344C19.3288 24.0869 19 24.4157 19 24.8213V54.2491C19 54.6547 19.3288 54.9835 19.7344 54.9835H26.991L23.7122 58.5398C23.1737 59.124 23.03 59.994 23.3515 60.7205C23.6774 61.457 24.4334 61.9337 25.2385 61.9146C25.7016 61.9037 26.1555 61.7324 26.5067 61.4298L33.9876 54.9835H38.8874C39.293 54.9835 39.6218 54.6547 39.6218 54.2491C39.6218 53.8436 39.2931 53.5147 38.8874 53.5147ZM25.5479 60.3172C25.3062 60.5257 24.9207 60.4757 24.7414 60.2109C24.6011 60.0038 24.6225 59.7196 24.7922 59.5355L28.9889 54.9836H31.7376L25.5479 60.3172Z" fill="black"/>
<path d="M54.4144 32.8145H45.0082C44.1216 32.8145 43.4004 33.5357 43.4004 34.4223V42.6874C43.4004 43.5739 44.1217 44.2952 45.0082 44.2952H54.4144C55.3009 44.2952 56.0222 43.5739 56.0222 42.6874V41.0306L58.2268 42.5456C58.7376 42.8966 59.4265 42.9312 59.9717 42.6375C60.5052 42.3502 60.848 41.7721 60.848 41.1664V35.943C60.848 35.3574 60.5335 34.8037 60.03 34.5047C59.4733 34.1741 58.7606 34.1971 58.2269 34.5639L56.0222 36.0789V34.4221C56.0222 33.5357 55.3009 32.8145 54.4144 32.8145ZM54.4144 42.8264H45.0082C44.9315 42.8264 44.8691 42.7641 44.8691 42.6874V34.4223C44.8691 34.3456 44.9315 34.2833 45.0082 34.2833H54.4144C54.491 34.2833 54.5533 34.3457 54.5533 34.4223V37.4799V37.4824V39.6272V39.6298V42.6874C54.5533 42.764 54.491 42.8264 54.4144 42.8264ZM59.0587 35.7745C59.1938 35.6817 59.3792 35.7806 59.3792 35.9432V41.1666C59.3792 41.3292 59.1938 41.4279 59.0586 41.3353L56.0221 39.2485V37.8613L59.0587 35.7745Z" fill="black"/>
<path d="M37.2062 43.7704C39.3481 43.7704 41.0907 42.0278 41.0907 39.8859V37.2233C41.0907 35.0813 39.3481 33.3389 37.2062 33.3389H36.0182C35.6126 33.3389 35.2838 33.6677 35.2838 34.0732V43.036C35.2838 43.4416 35.6126 43.7704 36.0182 43.7704H37.2062ZM36.7526 34.8076H37.2062C38.5382 34.8076 39.6218 35.8913 39.6218 37.2233V39.8859C39.6218 41.218 38.5381 42.3017 37.2062 42.3017H36.7526V34.8076Z" fill="black"/>
<path d="M33.2524 43.768C33.658 43.768 33.9868 43.4366 33.9868 43.031V34.0732C33.9868 33.6677 33.658 33.3389 33.2524 33.3389C32.8469 33.3389 32.5181 33.6677 32.5181 34.0732V37.8202H28.6208V34.0732C28.6208 33.6677 28.292 33.3389 27.8864 33.3389C27.4808 33.3389 27.152 33.6677 27.152 34.0732V43.036C27.152 43.4416 27.4808 43.7679 27.8864 43.7679C28.292 43.7679 28.6208 43.4365 28.6208 43.0309V39.289H32.5181V43.0359C32.5181 43.4417 32.8469 43.768 33.2524 43.768Z" fill="black"/>
</svg>
