<svg width="82" height="68" viewBox="0 0 82 68" fill="none" xmlns="http://www.w3.org/2000/svg">
<circle cx="32.5" cy="32.5" r="32.5" fill="#FAEBE7"/>
<g clip-path="url(#clip0_0_1)">
<path d="M81.4342 57.2186L77.5409 53.3254C77.1976 52.9822 76.6411 52.9822 76.298 53.3254C75.9547 53.6687 75.9547 54.2252 76.298 54.5683L80.1913 58.4615C80.3629 58.6331 80.5879 58.719 80.8128 58.719C81.0376 58.719 81.2626 58.6332 81.4342 58.4615C81.7776 58.1184 81.7776 57.5619 81.4342 57.2186Z" fill="#983E3E"/>
<path d="M44.3727 46.8781C44.3727 47.3635 44.7663 47.757 45.2516 47.757C45.737 47.757 46.1306 47.3635 46.1306 46.8781V45.5225C47.4258 45.0291 48.3488 43.775 48.3488 42.3086C48.3488 40.7238 47.2707 39.3868 45.8096 38.9905C46.133 38.4664 46.3203 37.8498 46.3203 37.19C46.3203 35.2981 44.7843 33.7584 42.8938 33.7519C43.1738 33.2546 43.3343 32.6814 43.3343 32.0712C43.3343 30.1754 41.7919 28.633 39.8961 28.633H38.2049C38.4848 28.1356 38.6452 27.5626 38.6452 26.9525C38.6452 25.0566 37.1028 23.5142 35.2069 23.5142H35.1643C34.6789 23.5142 34.2854 23.9077 34.2854 24.3931C34.2854 24.8785 34.6789 25.272 35.1643 25.272H35.2069C36.1335 25.272 36.8874 26.0259 36.8874 26.9525C36.8874 27.8791 36.1335 28.633 35.2069 28.633H31.1847C30.2581 28.633 29.5042 27.8791 29.5042 26.9525C29.5042 26.0908 30.1755 25.3559 31.0323 25.2794C31.5157 25.2362 31.8727 24.8092 31.8296 24.3257C31.7865 23.8422 31.3598 23.4856 30.8759 23.5285C30.4135 23.5699 29.9808 23.6999 29.5932 23.9005L23.8088 18.1161C23.4656 17.7728 22.909 17.7728 22.5659 18.1161C22.2227 18.4593 22.2227 19.0158 22.5659 19.359L28.2916 25.0847C27.9457 25.6226 27.7465 26.2637 27.7465 26.9525C27.7465 28.8483 29.289 30.3908 31.1848 30.3908H31.6191C31.3393 30.888 31.1788 31.4612 31.1788 32.0712C31.1788 33.9671 32.7213 35.5095 34.6171 35.5095H34.6654C34.3856 36.0069 34.2251 36.5799 34.2251 37.19C34.2251 39.0858 35.7675 40.6283 37.6634 40.6283H38.7882C38.5083 41.1255 38.3479 41.6987 38.3479 42.3087C38.3479 44.2046 39.8903 45.747 41.7862 45.747H44.373V46.8781H44.3727ZM32.9364 32.0712C32.9364 31.1446 33.6903 30.3908 34.6169 30.3908H39.8959C40.8225 30.3908 41.5764 31.1446 41.5764 32.0712C41.5764 32.9978 40.8225 33.7517 39.8959 33.7517H34.6169C33.6903 33.7517 32.9364 32.9978 32.9364 32.0712ZM35.9827 37.19C35.9827 36.2634 36.7366 35.5095 37.6632 35.5095H42.882C43.8086 35.5095 44.5625 36.2634 44.5625 37.19C44.5625 38.1166 43.8086 38.8705 42.882 38.8705H37.6632C36.7365 38.8705 35.9827 38.1166 35.9827 37.19ZM40.1055 42.3087C40.1055 41.3821 40.8593 40.6283 41.7859 40.6283H44.9105C45.8371 40.6283 46.591 41.3821 46.591 42.3087C46.591 43.2353 45.8371 43.9892 44.9105 43.9892H41.7859C40.8592 43.9891 40.1055 43.2353 40.1055 42.3087Z" fill="#983E3E"/>
<path d="M76.0621 44.8902C76.07 43.8306 75.6616 42.8343 74.9122 42.085L69.8158 36.9885C68.9001 36.0729 67.7731 35.3543 66.5566 34.9103L59.6913 32.4053L57.1864 25.5401C56.7425 24.3236 56.0239 23.1964 55.1082 22.2807L50.8719 18.0444C49.3406 16.5131 46.8489 16.5131 45.3176 18.0444C44.8844 18.4777 44.5667 19.0002 44.3759 19.5652L33.6841 8.27461C33.3502 7.92211 32.7939 7.90699 32.4415 8.24074C32.089 8.57449 32.0739 9.13078 32.4077 9.48328L53.735 32.0047C53.8286 32.1036 53.9439 32.1795 54.0719 32.2261L65.9542 36.5617C66.9317 36.9184 67.8372 37.4958 68.573 38.2316L73.6694 43.328C74.0833 43.7419 74.3088 44.2921 74.3044 44.8774C74.3001 45.4627 74.0665 46.0096 73.6465 46.4173C72.8 47.239 71.4336 47.228 70.6001 46.3925L66.3486 42.1332C66.0972 41.8815 65.719 41.8059 65.3906 41.942C65.062 42.0779 64.8476 42.3986 64.8476 42.7541V57.8298C64.8476 58.7564 64.0938 59.5103 63.1672 59.5103C62.2406 59.5103 61.4867 58.7564 61.4867 57.8298V52.5252C61.4867 52.0398 61.0932 51.6463 60.6078 51.6463C60.1224 51.6463 59.7289 52.0398 59.7289 52.5252V56.4598C59.7289 56.92 59.5464 57.3495 59.2151 57.6691C58.8841 57.9886 58.4474 58.1555 57.9863 58.1391C57.0939 58.1073 56.3679 57.3265 56.3679 56.3984V50.768C56.3679 50.2826 55.9744 49.8891 55.489 49.8891C55.0037 49.8891 54.6101 50.2826 54.6101 50.768V55.0861C54.6101 56.0127 53.8563 56.7666 52.9297 56.7666C52.0031 56.7666 51.2492 56.0127 51.2492 55.0861V49.4968C51.2492 49.0115 50.8557 48.6179 50.3703 48.6179C49.8849 48.6179 49.4914 49.0115 49.4914 49.4968V52.3352C49.4914 52.7954 49.3089 53.2249 48.9778 53.5446C48.6468 53.8642 48.2097 54.0311 47.7489 54.0147C46.8565 53.9829 46.1306 53.2021 46.1306 52.274V51.0886C46.1306 50.6032 45.737 50.2097 45.2517 50.2097C44.7663 50.2097 44.3728 50.6032 44.3728 51.0886V52.274C44.3728 54.1375 45.8594 55.7065 47.6866 55.7713C48.3326 55.7945 48.9545 55.6411 49.5002 55.332C49.6266 57.1137 51.1165 58.5244 52.9298 58.5244C53.679 58.5244 54.3727 58.2837 54.9381 57.8753C55.4743 59.0261 56.6112 59.8491 57.924 59.8957C58.6921 59.9237 59.4289 59.7006 60.0418 59.2623C60.5861 60.445 61.7824 61.268 63.1672 61.268C63.559 61.268 63.9353 61.2012 64.2864 61.0799L70.9492 67.7427C71.1208 67.9143 71.3458 68.0002 71.5707 68.0002C71.7956 68.0002 72.0206 67.9144 72.1921 67.7427C72.5354 67.3995 72.5354 66.8429 72.1921 66.4998L65.7676 60.0752C66.2889 59.4723 66.6054 58.6875 66.6054 57.8297V44.8785L73.321 51.5913C73.4926 51.7629 73.7176 51.8488 73.9424 51.8488C74.1673 51.8488 74.3923 51.763 74.5639 51.5913C74.9071 51.2481 74.9071 50.6916 74.5639 50.3484L72.9183 48.7029C73.6325 48.5597 74.3139 48.219 74.8709 47.6783C75.6314 46.94 76.0544 45.9499 76.0621 44.8902ZM45.9588 21.2026C45.835 20.5042 46.0601 19.7882 46.5608 19.2875C47.4067 18.4418 48.7831 18.4417 49.6291 19.2875L53.8654 23.5239C54.6011 24.2597 55.1786 25.1652 55.5352 26.1428L57.5329 31.6179L54.869 30.6459C54.8689 30.6458 45.9611 21.2157 45.9588 21.2026Z" fill="#983E3E"/>
</g>
<defs>
<clipPath id="clip0_0_1">
<rect width="60" height="60" fill="white" transform="translate(22 8)"/>
</clipPath>
</defs>
</svg>
