<svg width="74" height="70" viewBox="0 0 74 70" fill="none" xmlns="http://www.w3.org/2000/svg">
<circle cx="32.5" cy="32.5" r="32.5" fill="#FAEBE7"/>
<g clip-path="url(#clip0_120_44)">
<path d="M37.8271 31.7841C37.4135 31.7841 37.0357 31.5131 36.9033 31.1214C36.7748 30.7416 36.896 30.3071 37.208 30.0529C37.5293 29.7911 37.9903 29.7613 38.3429 29.9789C38.6845 30.1896 38.8644 30.6054 38.7851 30.999C38.6941 31.4502 38.2875 31.7841 37.8271 31.7841Z" fill="black"/>
<path d="M34.8877 53.3702C32.8259 53.3702 30.8874 52.5673 29.4289 51.1094C27.97 49.651 27.1663 47.712 27.1659 45.6493C27.1654 41.3911 30.6291 37.9263 34.8872 37.9257H34.8899C35.6077 37.9257 36.2732 38.0204 36.8511 38.1965V35.2403C36.8511 34.7009 37.2883 34.2637 37.8277 34.2637C38.3671 34.2637 38.8043 34.7009 38.8043 35.2403V39.8903C38.8043 40.3092 38.5371 40.6815 38.1402 40.8155C37.7435 40.9495 37.3051 40.8156 37.0511 40.4825C36.8279 40.1897 35.9946 39.8789 34.8896 39.8789C34.8889 39.8789 34.8883 39.8789 34.8877 39.8789C31.7063 39.8793 29.1186 42.4677 29.119 45.6489C29.1193 47.1898 29.7198 48.6385 30.8097 49.7281C31.8993 50.8172 33.3476 51.4171 34.8879 51.4171H34.8894C36.4304 51.4169 37.8792 50.8166 38.9686 49.7266C40.0581 48.6367 40.658 47.188 40.6576 45.6471L40.6548 29.0285C40.6548 28.6771 40.8434 28.3529 41.1489 28.1793C41.4543 28.0057 41.8294 28.0096 42.1313 28.1894L47.4812 31.3778C46.8103 27.3567 43.9117 23.9601 39.8944 22.662L38.8043 22.3138V26.4112C38.8043 26.9506 38.3671 27.3878 37.8277 27.3878C37.2883 27.3878 36.8511 26.9506 36.8511 26.4112V20.9766C36.8511 20.6649 37 20.3718 37.2517 20.188C37.5034 20.0041 37.8279 19.9514 38.1248 20.0464L40.4918 20.8024C45.8164 22.523 49.4673 27.3858 49.5797 32.9037C49.5816 32.997 49.5825 33.0909 49.5825 33.1849C49.5825 33.5363 49.3937 33.8604 49.0883 34.034C48.7829 34.2075 48.4078 34.2036 48.1059 34.0239L42.6082 30.7473L42.6107 45.6467C42.6112 47.7092 41.8084 49.6486 40.35 51.1075C38.8916 52.5664 36.9524 53.3699 34.8898 53.3702C34.889 53.3702 34.8883 53.3702 34.8877 53.3702Z" fill="black"/>
<path d="M43.798 69.9998C41.6575 69.9998 39.6449 69.1663 38.1308 67.6527C36.6161 66.1386 35.7817 64.1254 35.7813 61.984C35.781 59.8424 36.6146 57.8291 38.1286 56.3146C39.6427 54.8001 41.656 53.9658 43.7976 53.9655H43.801C44.5819 53.9655 45.3027 54.0709 45.9217 54.2664L45.9186 37.1086C45.9185 36.6437 46.2461 36.2432 46.7019 36.1512L69.6606 31.515C69.9475 31.4569 70.2456 31.5309 70.4724 31.7165C70.699 31.9019 70.8305 32.1793 70.8306 32.4721L70.8345 55.5586C70.8354 59.9793 67.2396 63.5766 62.8188 63.5776C62.8185 63.5776 62.8181 63.5776 62.8178 63.5776C58.3971 63.5777 54.8006 59.982 54.8 55.5618C54.7995 53.4203 55.633 51.4067 57.1472 49.892C58.6612 48.3774 60.6744 47.5431 62.8159 47.5428C63.5981 47.5428 64.3201 47.6484 64.9398 47.8442L64.939 43.3051L51.8134 46.1268L51.8162 61.9814C51.8167 64.1227 50.9832 66.1362 49.4691 67.6507C47.955 69.1654 45.9418 69.9997 43.8004 69.9999C43.7995 69.9998 43.7987 69.9998 43.798 69.9998ZM43.8005 55.9186C43.7996 55.9186 43.7988 55.9186 43.798 55.9186C42.1779 55.9188 40.6551 56.5498 39.51 57.6954C38.3648 58.8409 37.7343 60.3638 37.7345 61.9836C37.7349 63.6033 38.366 65.1261 39.5117 66.2713C40.6569 67.4162 42.1793 68.0466 43.7983 68.0466H43.8C45.4198 68.0464 46.9426 67.4154 48.0878 66.2698C49.233 65.1242 49.8635 63.6013 49.8631 61.9817L49.8602 45.3379C49.8601 44.8776 50.1814 44.4797 50.6314 44.383L65.7101 41.1415C65.9982 41.0796 66.2994 41.1511 66.5289 41.3366C66.7585 41.5219 66.8918 41.8011 66.8919 42.096L66.8933 49.5508C66.8934 49.9698 66.6263 50.3421 66.2293 50.4762C65.832 50.6104 65.3941 50.4763 65.1401 50.1432C64.9009 49.8294 64.005 49.496 62.816 49.496C61.1964 49.4961 59.6736 50.1272 58.5285 51.2729C57.3832 52.4185 56.7527 53.9416 56.7531 55.5615C56.7535 58.9047 59.4741 61.6246 62.8177 61.6246H62.8185C66.1622 61.6239 68.8821 58.9029 68.8813 55.5591L68.8776 33.6659L47.872 37.9077L47.8753 55.9732C47.8754 56.3921 47.6082 56.7645 47.2113 56.8986C46.8145 57.0329 46.3763 56.8987 46.1223 56.5657C45.8827 56.2517 44.9879 55.9186 43.8005 55.9186Z" fill="black"/>
</g>
<defs>
<clipPath id="clip0_120_44">
<rect width="50" height="50" fill="white" transform="translate(24 20)"/>
</clipPath>
</defs>
</svg>
