<svg width="82" height="65" viewBox="0 0 82 65" fill="none" xmlns="http://www.w3.org/2000/svg">
<circle cx="32.5" cy="32.5" r="32.5" fill="#FAEBE7"/>
<g clip-path="url(#clip0_0_1)">
<path d="M73.9485 18.0531C63.2252 7.32964 45.7769 7.32964 35.0536 18.0531C31.2913 21.8154 28.7177 26.5421 27.6108 31.7223C26.5333 36.7663 26.8862 41.9922 28.6315 46.8347C28.8412 47.4162 29.4828 47.7177 30.0641 47.5082C30.6458 47.2985 30.9473 46.6571 30.7376 46.0756C29.1341 41.6264 28.8098 36.8249 29.8001 32.1898C30.8163 27.4333 33.1804 23.0921 36.6366 19.6359C46.4871 9.78532 62.515 9.78532 72.3655 19.6359C77.0566 24.3271 79.6826 30.5628 79.7596 37.1948C79.8367 43.8147 77.3696 50.1003 72.8133 54.8934C72.7594 54.9501 72.706 55.0072 72.6526 55.0643C72.5582 55.1652 72.464 55.2663 72.3655 55.3648C62.515 65.2153 46.4871 65.2153 36.6366 55.3648C36.5842 55.3124 36.533 55.259 36.4825 55.2057C36.4799 55.1023 36.4776 55.0005 36.4776 54.9001C36.4776 54.6747 36.4819 54.4503 36.4901 54.2266C36.4929 54.1518 36.4985 54.0777 36.5023 54.0031C36.5095 53.8544 36.5164 53.7057 36.5273 53.5578C36.5338 53.4695 36.5433 53.3822 36.5511 53.2944C36.5629 53.161 36.5739 53.0276 36.5884 52.8949C36.5987 52.8013 36.6121 52.7084 36.6239 52.6151C36.6397 52.4892 36.6549 52.3629 36.6735 52.2375C36.6877 52.142 36.7045 52.0474 36.7202 51.9524C36.7401 51.8302 36.7595 51.708 36.7821 51.5866C36.7998 51.4905 36.8202 51.3954 36.8396 51.2999C36.8636 51.1806 36.8873 51.0613 36.9138 50.9428C36.9353 50.8467 36.9591 50.7512 36.9821 50.6557C37.0101 50.5391 37.0379 50.4225 37.0681 50.3068C37.0933 50.2109 37.1205 50.1158 37.147 50.0204C37.1789 49.9063 37.2106 49.7919 37.2448 49.6785C37.2733 49.5833 37.3039 49.4889 37.3341 49.3945C37.3699 49.2824 37.4058 49.1701 37.4436 49.0589C37.4757 48.9651 37.5093 48.8718 37.5429 48.7785C37.5826 48.6681 37.6225 48.5576 37.6643 48.4479C37.6998 48.3552 37.7365 48.2634 37.7735 48.1714C37.8169 48.063 37.8608 47.9547 37.9063 47.8472C37.9451 47.7558 37.985 47.6651 38.0253 47.5745C38.0725 47.4679 38.1203 47.3618 38.1695 47.2564C38.2115 47.1666 38.2544 47.0775 38.2979 46.9885C38.349 46.8838 38.4007 46.7793 38.4537 46.6758C38.4986 46.5881 38.5443 46.5008 38.5908 46.4139C38.6456 46.3109 38.7014 46.2083 38.7583 46.1062C38.8063 46.0204 38.8548 45.935 38.904 45.8501C38.9626 45.7492 39.0221 45.6488 39.0827 45.5488C39.1337 45.4648 39.1852 45.3813 39.2374 45.2981C39.2997 45.1992 39.363 45.1009 39.4271 45.0033C39.4809 44.9214 39.535 44.8399 39.59 44.7589C39.6559 44.6619 39.7232 44.566 39.7911 44.4703C39.8476 44.3906 39.9042 44.3112 39.962 44.2326C40.0316 44.1378 40.1027 44.044 40.1741 43.9507C40.2333 43.8735 40.2922 43.7962 40.3527 43.7199C40.426 43.6272 40.501 43.5356 40.5762 43.4444C40.6375 43.3698 40.6989 43.2952 40.7616 43.2215C40.8388 43.1308 40.9177 43.0414 40.9968 42.9523C41.0607 42.8802 41.1241 42.808 41.189 42.7371C41.27 42.6487 41.3526 42.562 41.4354 42.4752C41.5015 42.4058 41.5672 42.3362 41.6343 42.2678C41.7192 42.1816 41.806 42.0972 41.8925 42.0126C41.9604 41.9463 42.0278 41.8793 42.0968 41.8141C42.186 41.7297 42.2772 41.6475 42.3681 41.565C42.4375 41.5021 42.5059 41.4385 42.5763 41.3766C42.6701 41.2939 42.7664 41.2137 42.8621 41.1329C42.9322 41.0738 43.0016 41.0137 43.0727 40.9555C43.1718 40.8745 43.2732 40.796 43.3744 40.7169C43.4449 40.6619 43.5143 40.6055 43.5855 40.5514C43.6921 40.4706 43.8008 40.3927 43.9094 40.3143C43.9779 40.2647 44.045 40.2139 44.1144 40.1652C44.2342 40.0811 44.3568 39.9999 44.479 39.9184C44.5392 39.8783 44.5982 39.8367 44.6588 39.7972C44.8181 39.6936 44.9803 39.5934 45.1435 39.4946C45.1689 39.4793 45.1935 39.4628 45.2191 39.4475C45.4079 39.3345 45.5993 39.2248 45.7929 39.1181C45.8591 39.0817 45.9272 39.0476 45.9942 39.0119C46.1228 38.9433 46.2509 38.8741 46.3817 38.8084C46.4655 38.7662 46.5513 38.7267 46.6358 38.6858C46.7425 38.6341 46.8488 38.5819 46.9569 38.5321C48.9857 40.4701 51.6921 41.5672 54.5013 41.5672C57.3105 41.5672 60.0172 40.4699 62.046 38.5317C66.0065 40.3647 69.2479 43.6535 71.0078 47.653C71.2566 48.2186 71.9169 48.4759 72.4831 48.2268C73.0489 47.9778 73.3058 47.3172 73.0567 46.7515C71.1318 42.3767 67.7806 38.8808 63.5388 36.7704C64.7696 34.9651 65.4354 32.8333 65.4354 30.6334C65.4354 24.6043 60.5304 19.6993 54.5013 19.6993C53.8833 19.6993 53.382 20.2006 53.382 20.8186C53.382 21.4367 53.8833 21.938 54.5013 21.938C59.2961 21.938 63.1967 25.8388 63.1967 30.6334C63.1967 32.7773 62.3999 34.8418 60.9533 36.446C60.9531 36.4462 60.9529 36.4464 60.9528 36.4465C59.3009 38.2782 56.9496 39.3287 54.5011 39.3287C52.0527 39.3287 49.7012 38.2782 48.0495 36.4465C48.0494 36.4462 48.049 36.446 48.0486 36.4458C46.6022 34.841 45.8056 32.7771 45.8056 30.6335C45.8056 28.2933 46.7218 26.0979 48.3855 24.4521C48.8251 24.0172 48.8288 23.3085 48.3939 22.8691C47.9593 22.4294 47.2505 22.426 46.811 22.8605C44.7191 24.9295 43.5669 27.69 43.5669 30.6328C43.5669 32.8305 44.231 34.9608 45.4597 36.7652C45.4487 36.7706 45.4381 36.7766 45.4273 36.7822C45.34 36.8258 45.2547 36.8721 45.1681 36.9167C45.0355 36.9853 44.9025 37.0536 44.7717 37.1251C44.6792 37.1754 44.5887 37.2284 44.4971 37.2801C44.3749 37.3493 44.2525 37.4181 44.132 37.4896C44.0385 37.5452 43.9465 37.6027 43.854 37.6596C43.7383 37.7308 43.6227 37.8019 43.5087 37.8752C43.4156 37.9351 43.3242 37.9967 43.2322 38.0579C43.1216 38.1316 43.0111 38.2056 42.9022 38.2814C42.8106 38.3452 42.7201 38.4103 42.6296 38.4754C42.5233 38.5521 42.4173 38.6291 42.3127 38.7076C42.2229 38.775 42.1343 38.8433 42.0459 38.9119C41.9433 38.9916 41.8414 39.0718 41.7407 39.1533C41.6534 39.2239 41.5668 39.2953 41.4806 39.3671C41.3815 39.45 41.2832 39.5337 41.1858 39.6184C41.1013 39.6918 41.0174 39.7656 40.9342 39.8404C40.8381 39.9268 40.7433 40.0141 40.6491 40.1022C40.5678 40.1781 40.4866 40.2542 40.4064 40.3316C40.3133 40.4216 40.2217 40.5128 40.1303 40.6044C40.0523 40.6826 39.9743 40.7605 39.8978 40.8398C39.8073 40.9337 39.7185 41.0292 39.6299 41.1247C39.5559 41.2046 39.4812 41.284 39.4085 41.3652C39.3199 41.4637 39.2337 41.5642 39.1471 41.6644C39.0775 41.745 39.0074 41.8249 38.9391 41.9064C38.8512 42.0114 38.7662 42.1185 38.6805 42.2252C38.6169 42.3047 38.552 42.3831 38.4895 42.4635C38.3996 42.5791 38.3126 42.697 38.2253 42.8146C38.1705 42.8885 38.1141 42.961 38.0604 43.0356C37.95 43.1886 37.8431 43.3438 37.7371 43.4998C37.7093 43.5408 37.6798 43.5808 37.6522 43.622C37.5203 43.819 37.3921 44.0183 37.2673 44.2197C37.2242 44.2893 37.1838 44.3604 37.1416 44.4304C37.0608 44.5645 36.9797 44.6984 36.9019 44.8344C36.8534 44.9193 36.8075 45.0057 36.7603 45.0913C36.6922 45.2145 36.6237 45.3372 36.5584 45.4618C36.5099 45.5542 36.464 45.6477 36.4168 45.7408C36.356 45.8609 36.295 45.9809 36.2366 46.1023C36.1901 46.1989 36.1459 46.2967 36.101 46.3939C36.0457 46.5139 35.9903 46.6336 35.9374 46.7547C35.8937 46.8545 35.8519 46.9553 35.8099 47.0558C35.7594 47.1765 35.7092 47.2972 35.6611 47.4189C35.6206 47.5211 35.5818 47.6239 35.543 47.7267C35.4971 47.8487 35.4517 47.9709 35.4081 48.0938C35.3711 48.1981 35.3353 48.303 35.2999 48.408C35.2583 48.5313 35.2178 48.655 35.1786 48.7794C35.1452 48.8852 35.1129 48.9914 35.0812 49.0977C35.0439 49.2233 35.0079 49.3492 34.973 49.4757C34.9435 49.5824 34.9146 49.6893 34.8868 49.7967C34.8538 49.9245 34.8225 50.0529 34.7919 50.1816C34.7663 50.2891 34.7409 50.3964 34.7173 50.5042C34.6885 50.6346 34.6618 50.7657 34.6357 50.8971C34.6143 51.0045 34.5924 51.112 34.5727 51.22C34.5482 51.354 34.5262 51.4887 34.5044 51.6235C34.4872 51.7299 34.4691 51.836 34.4536 51.9427C34.4333 52.0819 34.4161 52.2218 34.3986 52.3618C34.3857 52.4655 34.3716 52.569 34.3602 52.6731C34.3441 52.8198 34.3318 52.9673 34.3189 53.1149C34.3104 53.2132 34.3001 53.3112 34.293 53.41C34.2811 53.5748 34.2732 53.7402 34.2652 53.9059C34.2613 53.9882 34.2551 54.0699 34.2522 54.1524C34.2432 54.4009 34.2382 54.6503 34.2382 54.9006C34.2382 55.171 34.2473 55.4266 34.2583 55.7088C34.2609 55.7741 34.2701 55.8375 34.2831 55.8995C34.2842 55.9043 34.2848 55.9092 34.2859 55.914C34.2997 55.975 34.3191 56.0336 34.3425 56.0903C34.3447 56.0959 34.3467 56.1015 34.3492 56.1071C34.3732 56.1631 34.402 56.2164 34.4344 56.2672C34.4385 56.2735 34.4425 56.2799 34.4466 56.286C34.4799 56.3358 34.5171 56.3827 34.5576 56.4263C34.5605 56.4295 34.5626 56.4334 34.5656 56.4366L34.7133 56.5939C34.8249 56.7133 34.9365 56.8323 35.0529 56.9485C40.4146 62.3102 47.4574 64.9911 54.5004 64.9911C61.5434 64.9911 68.5862 62.3102 73.9479 56.9485C74.0643 56.8323 74.1759 56.7131 74.2875 56.5939L74.4352 56.4366C79.3957 51.2183 82.0814 44.3761 81.9976 37.1697C81.9142 29.9489 79.0554 23.16 73.9485 18.0531Z" fill="#983E3E"/>
</g>
<defs>
<clipPath id="clip0_0_1">
<rect width="55" height="55" fill="white" transform="translate(27 10)"/>
</clipPath>
</defs>
</svg>
