<svg width="84" height="72" viewBox="0 0 84 72" fill="none" xmlns="http://www.w3.org/2000/svg">
<circle cx="32.5" cy="32.5" r="32.5" fill="#FAEBE7"/>
<path d="M68.388 36.5352C68.2609 36.2723 68.2064 35.9796 68.2305 35.6887L69.0755 25.4763C69.1705 24.327 68.7449 23.2128 67.9078 22.4195C67.0709 21.6263 65.9345 21.2613 64.7929 21.4176C63.914 21.5382 63.0635 21.825 62.2927 22.2572C62.2319 22.1738 62.1692 22.0914 62.1022 22.0115C60.5118 20.114 57.6746 19.864 55.7774 21.4537L48.9047 27.2055V25.9188C48.9047 25.8228 48.9333 25.7304 48.9874 25.6511L50.4128 23.5653C50.6863 23.1651 50.5836 22.6189 50.1834 22.3455C49.7829 22.0718 49.2369 22.1747 48.9636 22.5749L47.5382 24.6608C47.2839 25.0329 47.1494 25.4679 47.1494 25.9188V28.6746L41.68 33.2521V24.9858C41.68 24.0397 41.9621 23.1267 42.4959 22.3456L47.5158 14.9991C47.928 14.396 48.5503 13.9895 49.2682 13.8545C49.9861 13.7194 50.7135 13.8719 51.3167 14.2841C51.9198 14.6962 52.3263 15.3186 52.4614 16.0365C52.5964 16.7543 52.4439 17.4819 52.0318 18.0849L51.1108 19.433C50.8373 19.8333 50.9401 20.3793 51.3402 20.6528C51.7402 20.9263 52.2866 20.8234 52.5599 20.4233L53.481 19.0753C54.1576 18.085 54.4081 16.8906 54.1864 15.712C53.9646 14.5334 53.2971 13.5115 52.3069 12.8349C51.3168 12.1583 50.1224 11.9077 48.9436 12.1295C47.7649 12.3512 46.7431 13.0187 46.0665 14.0089L41.0466 21.3554C40.3127 22.4296 39.9247 23.685 39.9247 24.9859V34.7213L37.2924 36.9242C35.4006 38.5076 34.3866 40.9212 34.5801 43.3806L35.1388 50.4843C35.175 50.9442 35.5593 51.2933 36.0128 51.2932C36.0359 51.2932 36.0592 51.2922 36.0826 51.2905C36.5658 51.2526 36.9268 50.8299 36.8887 50.3469L36.33 43.2431C36.181 41.3488 36.962 39.4898 38.4191 38.2704L56.9044 22.7995C58.06 21.8309 59.7884 21.9833 60.757 23.139C61.7254 24.2948 61.5732 26.023 60.4174 26.9916L50.795 35.0555C50.1973 35.2 49.6251 35.4875 49.1292 35.919L44.4259 40.0128C44.0604 40.3311 44.022 40.8854 44.3401 41.251C44.6584 41.6165 45.2126 41.6548 45.5784 41.3367L50.2817 37.2429C51.0996 36.5306 52.2931 36.5239 53.1194 37.2267L60.2327 43.2771C60.7892 43.7505 61.1279 44.4121 61.1867 45.1402C61.2455 45.8684 61.0172 46.5758 60.5439 47.1321C60.1979 47.5389 59.7406 47.8314 59.2335 47.981L54.2567 43.7478C52.764 42.478 50.6076 42.4904 49.1293 43.777L44.426 47.8708C44.0605 48.1891 44.0221 48.7435 44.3403 49.109C44.6586 49.4747 45.2128 49.513 45.5786 49.1948L50.2818 45.101C51.0998 44.3888 52.2932 44.3818 53.1195 45.0847L60.2329 51.1352C60.7893 51.6086 61.128 52.2702 61.1868 52.9983C61.2457 53.7265 61.0173 54.4339 60.544 54.9902C60.0708 55.5466 59.4092 55.8854 58.6811 55.9441C57.9519 56.0027 57.2454 55.7745 56.6892 55.3013L52.286 51.556C51.9375 51.2596 51.4201 51.2805 51.0967 51.6039L49.79 52.9106C49.4472 53.2535 49.4472 53.8091 49.79 54.1518C50.1327 54.4945 50.6884 54.4945 51.0311 54.1518L51.7654 53.4175L55.5517 56.6383C56.371 57.3352 57.3896 57.7085 58.4536 57.7085C58.5759 57.7085 58.699 57.7035 58.8222 57.6935C60.0175 57.5971 61.1038 57.0408 61.881 56.1272C62.6581 55.2137 63.0329 54.0523 62.9363 52.8568C62.8399 51.6613 62.2836 50.575 61.37 49.7979L60.7158 49.2415C61.1531 48.9874 61.5484 48.66 61.881 48.2691C63.485 46.3833 63.2559 43.5439 61.37 41.9397L58.2163 39.2572L60.1224 29.5286L61.545 28.3364C62.4642 27.5662 63.0284 26.484 63.1338 25.2892C63.1766 24.8029 63.14 24.322 63.0311 23.8603C63.6422 23.4958 64.3238 23.2532 65.0315 23.1563C65.6435 23.072 66.2521 23.2681 66.7007 23.6932C67.1493 24.1183 67.3773 24.7152 67.3264 25.3312L66.4814 35.5436C66.4315 36.1467 66.5445 36.7538 66.808 37.2989L68.3708 40.5311C70.3399 44.6037 70.4065 49.3062 68.5535 53.433L67.5487 55.6709C67.3501 56.1131 67.5476 56.6325 67.9898 56.831C68.1066 56.8834 68.2286 56.9082 68.3488 56.9082C68.6837 56.9082 69.0038 56.7154 69.1499 56.3898L70.1548 54.152C72.2209 49.5509 72.1466 44.3077 69.9512 39.7669L68.388 36.5352ZM56.6828 37.9536L54.2565 35.8897C53.9512 35.6301 53.6179 35.4249 53.2686 35.2725L57.982 31.3226L56.6828 37.9536Z" fill="#983E3E"/>
<path d="M67.1685 58.6595C66.7263 58.461 66.2069 58.6582 66.0083 59.1007L63.7607 64.1062C63.7099 64.2192 63.6837 64.3417 63.6837 64.4656V71.1224C63.6837 71.6072 64.0765 72 64.5613 72C65.0461 72 65.4389 71.6072 65.4389 71.1224V64.6537L67.6096 59.8196C67.8082 59.3775 67.6106 58.8581 67.1685 58.6595Z" fill="#983E3E"/>
<path d="M62.0731 17.4617C62.5579 17.4617 62.9507 17.0689 62.9507 16.5841V12.8776C62.9507 12.3928 62.5579 12 62.0731 12C61.5883 12 61.1955 12.3928 61.1955 12.8776V16.5841C61.1955 17.0688 61.5884 17.4617 62.0731 17.4617Z" fill="#983E3E"/>
<path d="M65.8198 18.3347C65.9551 18.4101 66.1015 18.4457 66.2461 18.4457C66.5542 18.4457 66.8532 18.2831 67.0138 17.9949L68.8172 14.7567C69.053 14.3333 68.9008 13.7987 68.4775 13.5629C68.054 13.3271 67.5194 13.4793 67.2836 13.9026L65.4802 17.1408C65.2443 17.5644 65.3965 18.0988 65.8198 18.3347Z" fill="#983E3E"/>
<path d="M73.3116 18.0445C73.0564 17.6325 72.5157 17.5054 72.1034 17.7605L68.9523 19.712C68.5403 19.9672 68.4131 20.5082 68.6683 20.9202C68.8344 21.1883 69.1214 21.3359 69.4152 21.3359C69.573 21.3359 69.7326 21.2934 69.8765 21.2042L73.0276 19.2527C73.4398 18.9976 73.567 18.4566 73.3116 18.0445Z" fill="#983E3E"/>
<path d="M39.7396 60.047C38.3631 58.3172 37.4842 56.2417 37.1978 54.0449C37.135 53.5644 36.6952 53.2264 36.214 53.288C35.7334 53.3507 35.3945 53.7912 35.4572 54.2718C35.7849 56.7852 36.7908 59.1602 38.3661 61.1399L41.9871 65.6906V71.0652C41.9871 71.55 42.3801 71.9428 42.8648 71.9428C43.3494 71.9428 43.7424 71.55 43.7424 71.0652V65.384C43.7424 65.1856 43.6751 64.9928 43.5515 64.8375L39.7396 60.047Z" fill="#983E3E"/>
</svg>
