<svg width="100" height="82" viewBox="0 0 100 82" fill="none" xmlns="http://www.w3.org/2000/svg">
<circle cx="32.5" cy="32.5" r="32.5" fill="#FAEBE7"/>
<path d="M54.375 23.1704C54.1264 23.1704 53.8879 23.2692 53.7121 23.445C53.5363 23.6208 53.4375 23.8593 53.4375 24.1079V36.8671C53.432 36.9861 53.4509 37.105 53.493 37.2164C53.5352 37.3278 53.5996 37.4295 53.6824 37.5151C53.7652 37.6007 53.8647 37.6685 53.9747 37.7143C54.0846 37.76 54.2028 37.7829 54.3219 37.7813H63.8872C64.1358 37.7813 64.3743 37.6826 64.5501 37.5068C64.7259 37.3309 64.8247 37.0925 64.8247 36.8438C64.8247 36.5952 64.7259 36.3567 64.5501 36.1809C64.3743 36.0051 64.1358 35.9063 63.8872 35.9063H55.3125V24.1079C55.3125 23.8593 55.2137 23.6208 55.0379 23.445C54.8621 23.2692 54.6237 23.1704 54.375 23.1704Z" fill="#983E3E"/>
<path d="M80.3363 42.049C80.7224 40.2276 80.917 38.3709 80.917 36.5091C80.917 21.8685 69.0058 9.95679 54.3648 9.95679C39.7239 9.95679 27.8125 21.8682 27.8125 36.5091C27.8125 36.7578 27.9113 36.9962 28.0871 37.172C28.2629 37.3479 28.5014 37.4466 28.75 37.4466C28.9986 37.4466 29.2371 37.3479 29.4129 37.172C29.5887 36.9962 29.6875 36.7578 29.6875 36.5091C29.6875 22.9019 40.7578 11.8318 54.3648 11.8318C67.9719 11.8318 79.042 22.9019 79.042 36.5091C79.042 38.2342 78.8623 39.9547 78.5058 41.6426C75.9351 41.2243 73.3017 41.4277 70.8258 42.2357C68.3498 43.0437 66.1034 44.4328 64.2743 46.2869C62.4452 48.141 61.0866 50.406 60.3123 52.8927C59.5379 55.3794 59.3702 58.0153 59.8233 60.5801C55.5344 61.5486 51.0647 61.3551 46.8755 60.0196C42.6864 58.684 38.9295 56.2549 35.9925 52.9827L40.0378 48.9374C40.1692 48.8045 40.2587 48.6359 40.2952 48.4525C40.3316 48.2692 40.3134 48.0792 40.2428 47.9061C40.1722 47.733 40.0523 47.5845 39.8981 47.4789C39.7438 47.3734 39.5619 47.3155 39.375 47.3124H30C29.7489 47.3179 29.51 47.4216 29.3347 47.6014C29.1594 47.7812 29.0616 48.0227 29.0625 48.2738V57.6488C29.0624 57.8343 29.1173 58.0156 29.2202 58.1698C29.3232 58.3241 29.4696 58.4443 29.6409 58.5154C29.8122 58.5864 30.0007 58.6051 30.1827 58.5689C30.3646 58.5328 30.5317 58.4435 30.6628 58.3124L34.6653 54.3093C37.8293 57.8076 41.8671 60.4011 46.3643 61.8236C50.8616 63.2461 55.6563 63.4464 60.2566 62.404C61.0675 65.1177 62.5713 67.5735 64.6198 69.5294C66.6684 71.4853 69.1911 72.8739 71.9395 73.5584C74.6878 74.243 77.5671 74.1999 80.2938 73.4333C83.0204 72.6668 85.5004 71.2033 87.4895 69.187C89.4785 67.1706 90.9081 64.6709 91.6375 61.9341C92.3668 59.1973 92.3707 56.3177 91.6488 53.5789C90.9269 50.8401 89.504 48.3366 87.5204 46.3148C85.5368 44.2931 83.0608 42.8229 80.3363 42.049ZM30.9375 49.1874H37.1117L30.9375 55.3855V49.1874ZM75.8813 72.168C73.027 72.1681 70.2368 71.3217 67.8635 69.736C65.4903 68.1502 63.6406 65.8964 62.5483 63.2594C61.456 60.6224 61.1701 57.7207 61.727 54.9213C62.2838 52.1219 63.6582 49.5504 65.6765 47.5321C67.6948 45.5138 70.2662 44.1394 73.0656 43.5825C75.865 43.0257 78.7667 43.3115 81.4037 44.4037C84.0407 45.496 86.2946 47.3457 87.8804 49.7189C89.4661 52.0922 90.3125 54.8824 90.3125 57.7366C90.3082 61.5627 88.7863 65.2308 86.0809 67.9363C83.3755 70.6418 79.7073 72.1636 75.8813 72.168Z" fill="#983E3E"/>
<path d="M75.8812 50.2743C76.8126 50.2754 77.7055 50.6459 78.3641 51.3044C79.0227 51.963 79.3931 52.8559 79.3942 53.7873C79.3942 54.0359 79.493 54.2744 79.6688 54.4502C79.8446 54.626 80.0831 54.7248 80.3317 54.7248C80.5833 54.7259 80.8253 54.6283 81.0058 54.4531C81.1863 54.2778 81.291 54.0388 81.2973 53.7873C81.2969 52.5256 80.8543 51.3039 80.0464 50.3347C79.2385 49.3656 78.1165 48.7102 76.8755 48.4826V46.8914C76.8755 46.6427 76.7767 46.4043 76.6009 46.2284C76.4251 46.0526 76.1866 45.9539 75.938 45.9539C75.6893 45.9539 75.4509 46.0526 75.275 46.2284C75.0992 46.4043 75.0005 46.6427 75.0005 46.8914V48.4826C73.7407 48.6802 72.5944 49.3253 71.7717 50.2997C70.9491 51.274 70.5052 52.5122 70.5216 53.7873C70.52 55.2145 71.0853 56.5839 72.0933 57.5944C73.1013 58.6048 74.4693 59.1735 75.8966 59.1754C76.8251 59.1759 77.7158 59.5441 78.3737 60.1994C79.0316 60.8547 79.4032 61.7439 79.4073 62.6724C79.4115 63.601 79.0477 64.4935 78.3957 65.1546C77.7437 65.8158 76.8563 66.1918 75.9278 66.2006C75.9136 66.2006 75.898 66.1985 75.8837 66.1985C75.8695 66.1985 75.8548 66.1999 75.8406 66.2006C74.9166 66.1886 74.0345 65.8134 73.3849 65.1562C72.7353 64.499 72.3704 63.6126 72.3692 62.6885C72.3692 62.4399 72.2704 62.2014 72.0946 62.0256C71.9188 61.8498 71.6803 61.751 71.4317 61.751C71.3101 61.7516 71.1897 61.7764 71.0778 61.8241C70.9659 61.8718 70.8646 61.9413 70.7799 62.0286C70.6952 62.1159 70.6287 62.2193 70.5845 62.3326C70.5402 62.4459 70.5191 62.5669 70.5222 62.6885C70.5057 63.9635 70.9494 65.2016 71.7718 66.176C72.5943 67.1503 73.7404 67.7956 75 67.9934V69.787C75 70.0356 75.0988 70.2741 75.2746 70.4499C75.4504 70.6257 75.6888 70.7245 75.9375 70.7245C76.1861 70.7245 76.4246 70.6257 76.6004 70.4499C76.7762 70.2741 76.875 70.0356 76.875 69.787V67.9934C78.1989 67.7508 79.3842 67.0217 80.1977 65.9495C81.0113 64.8773 81.3944 63.5395 81.2716 62.1992C81.1488 60.8589 80.529 59.613 79.5341 58.7065C78.5393 57.7999 77.2412 57.2984 75.8953 57.3004C75.4321 57.3043 74.9727 57.2165 74.5435 57.0421C74.1144 56.8678 73.7239 56.6103 73.3947 56.2844C73.0654 55.9586 72.8039 55.5708 72.6251 55.1435C72.4463 54.7161 72.3537 54.2577 72.3528 53.7944C72.3519 53.3312 72.4426 52.8724 72.6197 52.4443C72.7968 52.0163 73.0568 51.6275 73.3847 51.3003C73.7126 50.9732 74.102 50.7141 74.5305 50.538C74.959 50.3619 75.418 50.2723 75.8812 50.2743Z" fill="#983E3E"/>
</svg>
