<svg width="1920" height="479" viewBox="0 0 1920 479" fill="none" xmlns="http://www.w3.org/2000/svg">
<mask id="mask0_120_38" style="mask-type:alpha" maskUnits="userSpaceOnUse" x="0" y="0" width="1920" height="479">
<rect width="1920" height="479" fill="#FDF8F5"/>
</mask>
<g mask="url(#mask0_120_38)">
<g filter="url(#filter0_d_120_38)">
<path d="M1025.14 733.072C1012 731.222 996.872 727.601 980.967 721.875L335.337 558.204C332.39 553.254 329.869 549.665 327.777 547.118C317.583 546.813 317.677 534.818 327.777 547.118C340.481 547.497 369.161 529.72 414.358 424.138C545.55 117.672 793.938 284.897 969.323 222.174C1109.6 172.007 1127.11 -179.569 1078.21 -248.512L859.206 -729.39L1636.61 -350.861C1615.01 -219.051 1536.27 75.5634 1394.13 199.546C1216.45 354.525 875.565 194.682 834.251 447.526C806.809 615.47 903.167 693.863 980.967 721.875L1025.14 733.072Z" fill="#FDF8F5"/>
</g>
<g filter="url(#filter1_d_120_38)">
<circle cx="1844.5" cy="393.5" r="413.5" fill="url(#paint0_linear_120_38)"/>
</g>
<g filter="url(#filter2_d_120_38)">
<circle cx="139" cy="-16" r="424" transform="rotate(180 139 -16)" fill="url(#paint1_linear_120_38)"/>
</g>
</g>
<defs>
<filter id="filter0_d_120_38" x="220.167" y="-825.39" width="1516.44" height="1662.46" filterUnits="userSpaceOnUse" color-interpolation-filters="sRGB">
<feFlood flood-opacity="0" result="BackgroundImageFix"/>
<feColorMatrix in="SourceAlpha" type="matrix" values="0 0 0 0 0 0 0 0 0 0 0 0 0 0 0 0 0 0 127 0" result="hardAlpha"/>
<feOffset dy="4"/>
<feGaussianBlur stdDeviation="50"/>
<feComposite in2="hardAlpha" operator="out"/>
<feColorMatrix type="matrix" values="0 0 0 0 0 0 0 0 0 0 0 0 0 0 0 0 0 0 0.05 0"/>
<feBlend mode="normal" in2="BackgroundImageFix" result="effect1_dropShadow_120_38"/>
<feBlend mode="normal" in="SourceGraphic" in2="effect1_dropShadow_120_38" result="shape"/>
</filter>
<filter id="filter1_d_120_38" x="1331" y="-116" width="1027" height="1027" filterUnits="userSpaceOnUse" color-interpolation-filters="sRGB">
<feFlood flood-opacity="0" result="BackgroundImageFix"/>
<feColorMatrix in="SourceAlpha" type="matrix" values="0 0 0 0 0 0 0 0 0 0 0 0 0 0 0 0 0 0 127 0" result="hardAlpha"/>
<feOffset dy="4"/>
<feGaussianBlur stdDeviation="50"/>
<feComposite in2="hardAlpha" operator="out"/>
<feColorMatrix type="matrix" values="0 0 0 0 0 0 0 0 0 0 0 0 0 0 0 0 0 0 0.05 0"/>
<feBlend mode="normal" in2="BackgroundImageFix" result="effect1_dropShadow_120_38"/>
<feBlend mode="normal" in="SourceGraphic" in2="effect1_dropShadow_120_38" result="shape"/>
</filter>
<filter id="filter2_d_120_38" x="-385" y="-536" width="1048" height="1048" filterUnits="userSpaceOnUse" color-interpolation-filters="sRGB">
<feFlood flood-opacity="0" result="BackgroundImageFix"/>
<feColorMatrix in="SourceAlpha" type="matrix" values="0 0 0 0 0 0 0 0 0 0 0 0 0 0 0 0 0 0 127 0" result="hardAlpha"/>
<feOffset dy="4"/>
<feGaussianBlur stdDeviation="50"/>
<feComposite in2="hardAlpha" operator="out"/>
<feColorMatrix type="matrix" values="0 0 0 0 0 0 0 0 0 0 0 0 0 0 0 0 0 0 0.05 0"/>
<feBlend mode="normal" in2="BackgroundImageFix" result="effect1_dropShadow_120_38"/>
<feBlend mode="normal" in="SourceGraphic" in2="effect1_dropShadow_120_38" result="shape"/>
</filter>
<linearGradient id="paint0_linear_120_38" x1="1676.86" y1="305.691" x2="2117.51" y2="578.697" gradientUnits="userSpaceOnUse">
<stop stop-color="#FDF8F5"/>
<stop offset="1" stop-color="#FAEBE7"/>
</linearGradient>
<linearGradient id="paint1_linear_120_38" x1="-32.8919" y1="-106.039" x2="418.938" y2="173.9" gradientUnits="userSpaceOnUse">
<stop stop-color="#FDF8F5"/>
<stop offset="1" stop-color="#FAEBE7"/>
</linearGradient>
</defs>
</svg>
