<svg width="51" height="51" viewBox="0 0 51 51" fill="none" xmlns="http://www.w3.org/2000/svg">
<g clip-path="url(#clip0_6_24)">
<path d="M7.52815 21.4696C7.66419 21.5508 7.81403 21.5893 7.96141 21.5893C8.25715 21.5893 8.546 21.4341 8.7057 21.1551C9.17346 20.3417 9.71763 19.5679 10.3244 18.8557C10.6354 18.4901 10.596 17.9371 10.2362 17.6206C9.87585 17.306 9.33267 17.3451 9.02017 17.7102C8.34538 18.5046 7.73911 19.3661 7.2186 20.2731C6.97856 20.6903 7.11657 21.2262 7.52815 21.4696Z" fill="#983E3E"/>
<path d="M15.4023 36.2243C15.6226 36.2243 15.8435 36.1387 16.0115 35.9679L22.373 29.5039C22.5341 29.3401 22.6253 29.1177 22.6253 28.8853V19.65C22.6253 19.1662 22.2399 18.7746 21.7637 18.7746C21.2876 18.7746 20.9026 19.1662 20.9026 19.65V28.5227L14.7936 34.7303C14.4569 35.0719 14.4569 35.6263 14.7936 35.9679C14.9616 36.1387 15.182 36.2243 15.4023 36.2243Z" fill="#983E3E"/>
<path d="M50.1905 11.6414C50.1905 5.22191 45.0515 0 38.7339 0C33.7827 0 29.5674 3.21348 27.9699 7.69113C25.9633 7.08509 23.8778 6.77006 21.7642 6.77006C9.76297 6.77006 0 16.6905 0 28.8848C0 41.0791 9.76346 51 21.7642 51C33.765 51 43.5279 41.0791 43.5279 28.8848C43.5279 26.7341 43.214 24.6185 42.617 22.5805C47.0261 20.9588 50.1905 16.674 50.1905 11.6414ZM41.8052 28.8853C41.8052 40.1145 32.8151 49.2496 21.7642 49.2496C10.7128 49.2496 1.7227 40.1145 1.7227 28.8853C1.7227 17.6556 10.7128 8.52054 21.7642 8.52054C23.7186 8.52054 25.6453 8.81254 27.4982 9.374C27.3552 10.1083 27.2764 10.8655 27.2764 11.6414C27.2764 12.0155 27.2976 12.3846 27.3316 12.7503C26.1673 12.3366 24.9597 12.0456 23.7206 11.8983C19.9695 11.4525 16.2782 12.2659 13.0521 14.2508C12.646 14.5013 12.5158 15.0397 12.7623 15.4534C12.9245 15.7243 13.2089 15.8751 13.4997 15.8751C13.652 15.8751 13.8063 15.834 13.9458 15.7484C16.085 14.4311 18.4524 13.6944 20.9026 13.5581V15.7554C20.9026 16.2392 21.2881 16.6304 21.7642 16.6304C22.2404 16.6304 22.6253 16.2392 22.6253 15.7554V13.5682C22.9235 13.5862 23.2212 13.6017 23.5204 13.6373C24.9745 13.8106 26.3798 14.2007 27.7111 14.7792C28.7886 18.6799 31.8131 21.7511 35.6528 22.8435C36.3448 24.4823 36.7421 26.2323 36.8407 28.0093H34.6852C34.2091 28.0093 33.8236 28.401 33.8236 28.8848C33.8236 29.3686 34.2091 29.7598 34.6852 29.7598H36.8446C36.8274 30.0633 36.8047 30.3668 36.7697 30.6693C36.4059 33.8267 35.1116 36.7187 33.0779 39.0471L31.5474 37.506C31.2093 37.1659 30.6641 37.1674 30.3294 37.511C29.9947 37.8546 29.9972 38.4086 30.3343 38.7486L31.8594 40.2843C31.6203 40.5021 31.3867 40.7245 31.1324 40.9284C28.66 42.9137 25.706 44.0281 22.6253 44.2009V42.0142C22.6253 41.5304 22.2399 41.1387 21.7637 41.1387C21.2876 41.1387 20.9026 41.5304 20.9026 42.0142V44.1939C20.6039 44.1759 20.3067 44.1674 20.0075 44.1323C16.6508 43.7326 13.6899 42.2251 11.4063 40.0283L12.9614 38.5358C13.307 38.2042 13.3232 37.6503 12.9959 37.2992C12.6701 36.9481 12.124 36.9315 11.7785 37.2641L10.2228 38.7566C8.16448 36.2709 6.88342 33.1381 6.69463 29.7598H8.84271C9.31886 29.7598 9.70382 29.3681 9.70382 28.8843C9.70382 28.4005 9.31886 28.0093 8.84271 28.0093H6.69907C6.71632 27.7063 6.72273 27.4048 6.75822 27.0998C6.81342 26.6194 6.47529 26.1852 6.00259 26.1286C5.52645 26.073 5.10255 26.4176 5.04685 26.8964C4.52437 31.4331 5.77192 35.9058 8.55978 39.4899C11.3472 43.073 15.3417 45.3399 19.8069 45.8708C20.4723 45.9504 21.1367 45.9895 21.7972 45.9895C25.565 45.989 29.1992 44.7118 32.2005 42.3012C35.7272 39.4689 37.9581 35.4099 38.4806 30.8727C38.7788 28.2848 38.4885 25.6668 37.6471 23.2271C38.0049 23.2617 38.3667 23.2832 38.7334 23.2832C39.496 23.2832 40.2398 23.2036 40.9609 23.0584C41.5134 24.9411 41.8052 26.8974 41.8052 28.8853ZM38.7339 21.5328C33.3662 21.5328 28.9991 17.0957 28.9991 11.6414C28.9991 6.18756 33.3662 1.75049 38.7339 1.75049C44.1007 1.75049 48.4678 6.18756 48.4678 11.6414C48.4678 17.0957 44.1007 21.5328 38.7339 21.5328Z" fill="#983E3E"/>
<path d="M38.483 5.82193C35.8687 5.82193 33.6624 7.61349 32.9793 10.0501L32.7047 9.68152C32.4179 9.29686 31.8771 9.21823 31.4976 9.51123C31.1186 9.80272 31.0436 10.3517 31.3305 10.7378L32.7432 12.6366C32.9088 12.8594 33.1651 12.9837 33.4303 12.9837C33.5229 12.9837 33.6161 12.9681 33.7068 12.9371L35.8233 12.2083C36.2734 12.0526 36.5149 11.5562 36.3626 11.0979C36.2093 10.6412 35.7223 10.3942 35.2698 10.55L34.5704 10.7909C34.9563 8.95478 36.5627 7.57242 38.4835 7.57242C40.6918 7.57242 42.4884 9.39753 42.4884 11.6414C42.4884 13.8852 40.6918 15.7113 38.4835 15.7113C37.9423 15.7113 37.4184 15.6036 36.9255 15.3913C36.4922 15.2049 35.9825 15.4093 35.7967 15.8566C35.6119 16.3018 35.8159 16.8147 36.2541 17.0035C36.961 17.308 37.7107 17.4618 38.4835 17.4618C41.6416 17.4618 44.2116 14.8503 44.2116 11.6414C44.2116 8.43239 41.6411 5.82193 38.483 5.82193Z" fill="#983E3E"/>
</g>
<defs>
<clipPath id="clip0_6_24">
<rect width="50.1905" height="51" fill="white"/>
</clipPath>
</defs>
</svg>
