<svg width="51" height="51" viewBox="0 0 51 51" fill="none" xmlns="http://www.w3.org/2000/svg">
<g clip-path="url(#clip0_4_14)">
<path d="M50.2642 49.5031H44.0782C46.3748 47.4551 46.1758 43.4062 43.8332 41.4629C44.3289 41.487 44.8938 41.3181 44.8938 40.7159C44.8938 39.5576 44.506 38.604 43.7415 37.8819C43.2959 37.4611 42.7657 37.1676 42.2292 36.9627C42.4277 36.6359 42.5421 36.2526 42.5421 35.843C42.5421 34.6502 41.5719 33.6799 40.3793 33.6799C39.1866 33.6799 38.2164 34.6502 38.2164 35.843C38.2164 36.0814 38.2557 36.3104 38.3271 36.5251H37.1014C37.1114 34.1639 37.3435 31.6606 36.7437 29.3553C35.6701 25.2285 32.3293 21.9869 28.1971 20.9701V19.1906C30.9776 18.111 32.9547 15.4084 32.9547 12.2509C32.9547 9.61076 31.5091 7.12635 29.2275 5.8059C29.4745 5.27232 29.6032 4.69084 29.6032 4.09102C29.6033 1.8352 27.7683 0 25.5127 0C23.2571 0 21.4221 1.8352 21.4221 4.09092C21.4221 4.68675 21.5523 5.27023 21.7992 5.80501C19.5729 7.09288 18.0707 9.49891 18.0707 12.2508C18.0707 15.3566 19.9835 18.0229 22.6922 19.1367V20.9967C20.3331 21.5561 18.8032 22.7107 18.7341 22.7636C18.7339 22.7637 18.7338 22.7639 18.7336 22.764C18.1756 23.1575 17.6471 23.6024 17.163 24.0881C16.4988 24.7544 17.5345 25.8317 18.2212 25.1428C18.4452 24.9181 18.6804 24.7038 18.924 24.5003C20.2036 26.6725 22.6815 28.0782 25.3717 28.0782C28.0498 28.0782 30.525 26.6176 31.8038 24.3634C34.2243 26.2912 35.6382 29.2103 35.625 32.3376L35.6073 36.525H34.6674C33.706 36.525 33.7044 38.019 34.6674 38.019H38.6224V40.2299C37.6737 40.3051 36.7312 40.4512 35.7995 40.6437C35.3826 40.7299 33.979 41.0364 33.9674 41.0481C33.9536 41.0618 32.1722 40.2697 32.2534 37.5119C32.2536 37.5046 32.2537 37.4972 32.2537 37.4899V30.7453C32.2537 29.7839 30.7596 29.7823 30.7596 30.7453V37.4791C30.7 39.6024 31.5093 40.8895 32.2468 41.6169C30.3677 42.2523 28.1063 43.201 25.5655 44.6166C22.9456 43.1541 20.5877 42.1693 18.5636 41.5081C19.2828 40.7699 20.0435 39.4979 19.9856 37.4369V30.7031C19.9856 29.7417 18.4915 29.7401 18.4915 30.7031V37.4476C18.4915 37.455 18.4916 37.4623 18.4918 37.4696C18.566 39.9888 17.0811 40.8536 16.8105 40.9898C14.8984 40.4852 13.3822 40.2872 12.3462 40.2156V38.019H16.3012C17.2627 38.019 17.2693 36.525 16.3012 36.525H15.2145C15.2103 36.1954 15.204 35.8655 15.1977 35.5432C15.1477 32.9869 15.1004 30.5723 16.0824 28.2734C16.4601 27.3893 15.0866 26.8008 14.7085 27.6865C13.6004 30.2804 13.653 32.9707 13.7039 35.5724C13.7101 35.8857 13.7161 36.2063 13.7202 36.5249H12.6413C12.7128 36.3103 12.7521 36.0812 12.7521 35.8428C12.7521 34.65 11.7818 33.6797 10.5892 33.6797C9.39652 33.6797 8.42628 34.65 8.42628 35.8428C8.42628 36.2524 8.54072 36.6356 8.73923 36.9624C8.20287 37.1673 7.67258 37.4608 7.22705 37.8816C6.46249 38.6037 6.07473 39.5573 6.07473 40.7156C6.07473 41.3627 6.69517 41.4856 7.20543 41.4626C4.93547 43.6033 4.53207 47.2592 6.93192 49.5028H0.761173C0.348614 49.5028 0.0141449 49.8372 0.0141449 50.2498C0.0141449 50.6623 0.348614 50.9968 0.761173 50.9968C0.761173 50.9968 33.481 50.9872 33.9253 50.9872C34.823 50.9872 34.6695 49.5028 33.8039 49.5028C33.8039 49.5028 23.4469 49.4558 20.8315 49.4645C26.4968 45.2624 31.3026 43.3662 34.417 42.5128C37.4965 41.6689 39.5313 41.6544 40.0757 41.6781C42.2855 41.7744 44.1078 43.1193 44.2092 45.482C44.2977 47.5414 42.6625 49.2978 40.6386 49.5028H38.2586C37.3239 49.5028 37.2538 50.9089 38.1754 50.9936C38.3 51.0051 50.2642 50.9968 50.2642 50.9968C51.2256 50.9971 51.2272 49.5031 50.2642 49.5031ZM22.9161 4.09092C22.9161 2.65902 24.0809 1.49406 25.5127 1.49406C26.9445 1.49406 28.1093 2.65902 28.1093 4.09092C28.1093 4.47629 28.0243 4.84911 27.8639 5.19085C27.1243 4.94383 26.3343 4.80797 25.5127 4.80797C24.691 4.80797 23.9008 4.94383 23.1612 5.19095C23.0009 4.84861 22.9161 4.474 22.9161 4.09092ZM25.5127 6.30203C27.2859 6.30203 28.8794 7.08312 29.9701 8.31821C28.5255 11.0265 26.4161 12.537 23.6928 12.8083C21.5028 13.0269 19.7005 12.3355 19.6772 12.3265C19.6405 12.312 19.6031 12.3016 19.5658 12.2932C19.5657 12.2789 19.5647 12.265 19.5647 12.2508C19.5648 8.97061 22.2329 6.30203 25.5127 6.30203ZM19.8093 13.9358C20.4639 14.1175 21.5386 14.3454 22.8152 14.3454C23.1251 14.3454 23.4471 14.332 23.7776 14.3012C25.9194 14.1015 28.7946 13.1188 30.8913 9.71385C31.2558 10.4839 31.4607 11.3437 31.4607 12.2508C31.4607 15.5309 28.7925 18.1994 25.5128 18.1994C22.8181 18.1994 20.5377 16.3976 19.8093 13.9358ZM25.3718 26.5842C23.16 26.5842 21.1331 25.4163 20.1424 23.6244C20.7871 23.2398 22.0112 22.6186 23.5711 22.3392C23.9272 22.2755 24.1864 21.9657 24.1864 21.604V19.5727C24.6172 19.6506 25.0599 19.6935 25.5128 19.6935C25.918 19.6935 26.3154 19.6597 26.7033 19.597V21.5712C26.7033 21.9299 26.9581 22.2379 27.3105 22.3051C28.1352 22.4621 29.3271 22.7974 30.5694 23.5118C29.5735 25.3718 27.5583 26.5842 25.3718 26.5842ZM43.3094 39.9689H40.1164V38.0191C40.859 38.0817 41.9988 38.291 42.7157 38.9681C43.0076 39.2439 43.2044 39.5747 43.3094 39.9689ZM40.3795 35.1741C40.7483 35.1741 41.0483 35.4742 41.0483 35.8431C41.0483 36.212 40.7483 36.512 40.3795 36.512C40.0106 36.512 39.7106 36.2119 39.7106 35.8431C39.7106 35.4743 40.0106 35.1741 40.3795 35.1741ZM10.5893 35.1741C10.9581 35.1741 11.2581 35.4742 11.2581 35.8431C11.2581 36.212 10.9581 36.512 10.5893 36.512C10.2204 36.512 9.92043 36.2119 9.92043 35.8431C9.92043 35.4743 10.2204 35.1741 10.5893 35.1741ZM8.24968 38.9713C8.97111 38.2871 10.11 38.0784 10.8522 38.0174V39.9689H7.65933C7.76381 39.5761 7.95953 39.2464 8.24968 38.9713ZM7.58702 43.1988C8.18165 42.4312 9.37689 41.734 10.9385 41.6828C11.45 41.6659 16.5667 41.5157 24.0554 45.4953C23.8297 45.6321 23.6025 45.7715 23.373 45.9156C22.6033 45.8651 15.2559 45.4926 13.2617 49.48C12.2106 49.4764 11.1593 49.4685 10.1146 49.4538C7.15613 49.1627 5.83897 45.4557 7.58702 43.1988ZM18.4772 49.4738C17.3462 49.4784 16.2025 49.4821 15.0536 49.4826C16.0483 48.3662 17.8251 47.8498 19.2806 47.6116C19.9254 47.506 20.5559 47.4463 21.1198 47.4143C20.3234 47.9734 19.5097 48.5758 18.6803 49.2268C18.5923 49.2957 18.5249 49.3805 18.4772 49.4738Z" fill="#983E3E"/>
</g>
<defs>
<clipPath id="clip0_4_14">
<rect width="51" height="51" fill="white"/>
</clipPath>
</defs>
</svg>
