<svg width="51" height="51" viewBox="0 0 51 51" fill="none" xmlns="http://www.w3.org/2000/svg">
<g clip-path="url(#clip0_5_16)">
<path d="M50.5191 41.8358L47.2098 38.5266C46.918 38.2349 46.445 38.2349 46.1533 38.5266C45.8615 38.8184 45.8615 39.2914 46.1533 39.5831L49.4626 42.8923C49.6085 43.0381 49.7997 43.1111 49.9909 43.1111C50.182 43.1111 50.3733 43.0382 50.5191 42.8923C50.8109 42.6006 50.8109 42.1276 50.5191 41.8358Z" fill="#983E3E"/>
<path d="M19.0168 33.0464C19.0168 33.459 19.3513 33.7935 19.7639 33.7935C20.1765 33.7935 20.511 33.459 20.511 33.0464V31.8941C21.612 31.4748 22.3965 30.4088 22.3965 29.1623C22.3965 27.8152 21.4801 26.6788 20.2381 26.3419C20.5131 25.8965 20.6722 25.3723 20.6722 24.8115C20.6722 23.2034 19.3667 21.8946 17.7598 21.8892C17.9977 21.4664 18.1342 20.9792 18.1342 20.4606C18.1342 18.8491 16.8231 17.538 15.2117 17.538H13.7742C14.0121 17.1153 14.1484 16.6282 14.1484 16.1096C14.1484 14.4982 12.8374 13.1871 11.2259 13.1871H11.1896C10.777 13.1871 10.4426 13.5216 10.4426 13.9342C10.4426 14.3467 10.777 14.6812 11.1896 14.6812H11.2259C12.0135 14.6812 12.6543 15.322 12.6543 16.1096C12.6543 16.8972 12.0135 17.538 11.2259 17.538H7.807C7.01938 17.538 6.3786 16.8972 6.3786 16.1096C6.3786 15.3772 6.94916 14.7526 7.6775 14.6875C8.08839 14.6508 8.3918 14.2879 8.35515 13.8769C8.31849 13.4659 7.95581 13.1628 7.54452 13.1992C7.15147 13.2344 6.78371 13.345 6.4542 13.5154L1.53748 8.59868C1.24573 8.30693 0.77268 8.30693 0.481024 8.59868C0.189268 8.89044 0.189268 9.36349 0.481024 9.65514L5.34784 14.5221C5.05389 14.9793 4.88456 15.5241 4.88456 16.1096C4.88456 17.7211 6.19561 19.0322 7.8071 19.0322H8.17625C7.93838 19.4548 7.80201 19.942 7.80201 20.4606C7.80201 22.0721 9.11307 23.3831 10.7246 23.3831H10.7656C10.5277 23.8059 10.3914 24.2929 10.3914 24.8115C10.3914 26.423 11.7024 27.7341 13.3139 27.7341H14.27C14.0321 28.1567 13.8957 28.6439 13.8957 29.1624C13.8957 30.7739 15.2068 32.085 16.8183 32.085H19.017V33.0464H19.0168ZM9.29596 20.4606C9.29596 19.673 9.93674 19.0322 10.7244 19.0322H15.2116C15.9992 19.0322 16.64 19.673 16.64 20.4606C16.64 21.2482 15.9992 21.889 15.2116 21.889H10.7244C9.93674 21.889 9.29596 21.2482 9.29596 20.4606ZM11.8853 24.8115C11.8853 24.0239 12.5261 23.3831 13.3137 23.3831H17.7497C18.5373 23.3831 19.1781 24.0239 19.1781 24.8115C19.1781 25.5991 18.5373 26.2399 17.7497 26.2399H13.3137C12.526 26.2399 11.8853 25.5991 11.8853 24.8115ZM15.3897 29.1624C15.3897 28.3748 16.0304 27.7341 16.8181 27.7341H19.4739C20.2616 27.7341 20.9023 28.3748 20.9023 29.1624C20.9023 29.9501 20.2616 30.5908 19.4739 30.5908H16.8181C16.0303 30.5907 15.3897 29.9501 15.3897 29.1624Z" fill="#983E3E"/>
<path d="M45.9528 31.3566C45.9595 30.456 45.6124 29.6091 44.9754 28.9722L40.6434 24.6402C39.8651 23.8619 38.9072 23.2511 37.8731 22.8737L32.0376 20.7445L29.9084 14.909C29.5311 13.875 28.9203 12.9169 28.142 12.1386L24.5411 8.53772C23.2395 7.23612 21.1216 7.23612 19.82 8.53772C19.4517 8.90598 19.1817 9.35013 19.0195 9.83035L9.93148 0.233384C9.64769 -0.0662412 9.17485 -0.0790909 8.87532 0.204597C8.5757 0.488284 8.56285 0.96113 8.84653 1.26076L26.9747 20.404C27.0543 20.4881 27.1523 20.5525 27.2611 20.5922L37.3611 24.2774C38.192 24.5806 38.9616 25.0714 39.5871 25.6968L43.919 30.0287C44.2708 30.3806 44.4625 30.8482 44.4588 31.3458C44.4551 31.8432 44.2566 32.3081 43.8996 32.6547C43.18 33.3531 42.0186 33.3438 41.3101 32.6336L37.6963 29.0132C37.4826 28.7993 37.1612 28.735 36.882 28.8507C36.6027 28.9662 36.4205 29.2387 36.4205 29.541V42.3553C36.4205 43.1429 35.7797 43.7837 34.9921 43.7837C34.2045 43.7837 33.5637 43.1429 33.5637 42.3553V37.8464C33.5637 37.4338 33.2292 37.0993 32.8166 37.0993C32.4041 37.0993 32.0696 37.4338 32.0696 37.8464V41.1908C32.0696 41.5819 31.9145 41.947 31.6329 42.2187C31.3515 42.4903 30.9803 42.6321 30.5884 42.6182C29.8298 42.5912 29.2128 41.9275 29.2128 41.1386V36.3528C29.2128 35.9402 28.8783 35.6057 28.4657 35.6057C28.0531 35.6057 27.7186 35.9402 27.7186 36.3528V40.0232C27.7186 40.8108 27.0778 41.4516 26.2902 41.4516C25.5026 41.4516 24.8618 40.8108 24.8618 40.0232V35.2723C24.8618 34.8597 24.5273 34.5252 24.1148 34.5252C23.7022 34.5252 23.3677 34.8597 23.3677 35.2723V37.6849C23.3677 38.0761 23.2126 38.4412 22.9311 38.7129C22.6498 38.9845 22.2783 39.1264 21.8866 39.1124C21.1281 39.0854 20.511 38.4217 20.511 37.6328V36.6253C20.511 36.2127 20.1765 35.8782 19.7639 35.8782C19.3513 35.8782 19.0169 36.2127 19.0169 36.6253V37.6328C19.0169 39.2168 20.2805 40.5505 21.8336 40.6056C22.3828 40.6253 22.9114 40.4949 23.3752 40.2321C23.4826 41.7466 24.7491 42.9457 26.2903 42.9457C26.9271 42.9457 27.5168 42.7411 27.9974 42.394C28.4531 43.3721 29.4196 44.0717 30.5354 44.1113C31.1883 44.1351 31.8146 43.9455 32.3355 43.5729C32.7982 44.5782 33.815 45.2778 34.9921 45.2778C35.3252 45.2778 35.645 45.221 35.9435 45.1179L41.6069 50.7813C41.7527 50.9271 41.9439 51.0001 42.1351 51.0001C42.3262 51.0001 42.5175 50.9272 42.6633 50.7813C42.9551 50.4895 42.9551 50.0165 42.6633 49.7248L37.2024 44.2639C37.6456 43.7514 37.9146 43.0844 37.9146 42.3552V31.3467L43.6229 37.0526C43.7687 37.1984 43.9599 37.2714 44.1511 37.2714C44.3422 37.2714 44.5335 37.1985 44.6793 37.0526C44.9711 36.7609 44.9711 36.2878 44.6793 35.9961L43.2806 34.5974C43.8876 34.4757 44.4669 34.1861 44.9403 33.7266C45.5867 33.099 45.9463 32.2574 45.9528 31.3566ZM20.365 11.2222C20.2598 10.6285 20.4511 10.0199 20.8767 9.59438C21.5957 8.8755 22.7657 8.8754 23.4847 9.59438L27.0856 13.1953C27.711 13.8207 28.2018 14.5904 28.5049 15.4213L30.203 20.0752L27.9387 19.249C27.9386 19.2489 20.367 11.2334 20.365 11.2222Z" fill="#983E3E"/>
</g>
<defs>
<clipPath id="clip0_5_16">
<rect width="51" height="51" fill="white"/>
</clipPath>
</defs>
</svg>
