<svg width="42" height="42" viewBox="0 0 42 42" fill="none" xmlns="http://www.w3.org/2000/svg">
<path d="M34.8091 0H7.19094C3.22588 0 0 3.22588 0 7.19094V34.8091C0 38.7741 3.22588 42 7.19094 42H34.8091C38.7741 42 42 38.7741 42 34.8091V7.19094C42 3.22588 38.7741 0 34.8091 0ZM40.7695 34.8091C40.7695 38.0956 38.0956 40.7695 34.8091 40.7695H7.19094C3.90436 40.7695 1.23047 38.0956 1.23047 34.8091V7.19094C1.23047 3.90436 3.90436 1.23047 7.19094 1.23047H34.8091C38.0956 1.23047 40.7695 3.90436 40.7695 7.19094V34.8091Z" fill="#983E3E"/>
<path d="M21 9.20602C14.4968 9.20602 9.20605 14.4968 9.20605 21C9.20605 27.5032 14.4968 32.7939 21 32.7939C27.5032 32.7939 32.794 27.5032 32.794 21C32.794 14.4968 27.5032 9.20602 21 9.20602ZM21 31.5635C15.1753 31.5635 10.4365 26.8247 10.4365 21C10.4365 15.1753 15.1753 10.4365 21 10.4365C26.8247 10.4365 31.5635 15.1753 31.5635 21C31.5635 26.8247 26.8247 31.5635 21 31.5635Z" fill="#983E3E"/>
<path d="M33.494 5.26059C31.7044 5.26059 30.2484 6.71656 30.2484 8.50607C30.2484 10.2957 31.7044 11.7516 33.494 11.7516C35.2836 11.7516 36.7395 10.2957 36.7395 8.50607C36.7395 6.71648 35.2836 5.26059 33.494 5.26059ZM33.494 10.5212C32.3829 10.5212 31.4789 9.61719 31.4789 8.50607C31.4789 7.39496 32.3829 6.49106 33.494 6.49106C34.6051 6.49106 35.509 7.39504 35.509 8.50607C35.509 9.61711 34.6051 10.5212 33.494 10.5212Z" fill="#983E3E"/>
<path d="M15.8553 15.8553C18.3736 13.337 22.3075 13.0088 25.2091 15.0751C25.4858 15.2722 25.8701 15.2077 26.0672 14.9308C26.2643 14.6541 26.1997 14.2699 25.9229 14.0728C24.3034 12.9196 22.3157 12.3697 20.3264 12.5244C18.3125 12.6809 16.4156 13.5548 14.9852 14.9853C13.5548 16.4157 12.6808 18.3126 12.5242 20.3265C12.3696 22.316 12.9196 24.3035 14.0727 25.923C14.1927 26.0915 14.382 26.1814 14.5744 26.1814C14.6978 26.1814 14.8225 26.1443 14.9307 26.0673C15.2075 25.8701 15.2721 25.486 15.075 25.2092C13.0088 22.3075 13.3369 18.3737 15.8553 15.8553Z" fill="#983E3E"/>
<path d="M27.0691 15.9328C26.7924 16.1299 26.7277 16.514 26.9249 16.7908C28.9911 19.6924 28.663 23.6263 26.1447 26.1447C23.6263 28.663 19.6925 28.9912 16.7908 26.9249C16.5139 26.7278 16.1299 26.7923 15.9327 27.0692C15.7356 27.3459 15.8003 27.7301 16.077 27.9272C17.5173 28.9529 19.2487 29.5012 21.0138 29.5012C21.2333 29.5012 21.4535 29.4927 21.6735 29.4756C23.6875 29.319 25.5844 28.4452 27.0147 27.0147C28.4451 25.5843 29.319 23.6874 29.4756 21.6735C29.6302 19.684 29.0804 17.6964 27.9272 16.077C27.7301 15.8003 27.346 15.7357 27.0691 15.9328Z" fill="#983E3E"/>
</svg>
