<svg width="186" height="86" viewBox="0 0 186 86" fill="none" xmlns="http://www.w3.org/2000/svg">
<path d="M17.888 68.69C17.888 70.5247 18.0887 71.872 18.49 72.732C18.9487 73.5347 19.78 74.108 20.984 74.452C22.2453 74.796 24.1947 74.968 26.832 74.968C27.004 74.968 27.09 75.14 27.09 75.484C27.09 75.828 27.004 76 26.832 76C24.4813 76 22.6467 75.9713 21.328 75.914L13.846 75.828L7.654 75.914C6.56467 75.9713 5.074 76 3.182 76C3.01 76 2.924 75.828 2.924 75.484C2.924 75.14 3.01 74.968 3.182 74.968C5.13133 74.968 6.536 74.8247 7.396 74.538C8.256 74.2513 8.82933 73.7067 9.116 72.904C9.46 72.1013 9.632 70.8113 9.632 69.034V29.216C9.632 27.496 9.46 26.2347 9.116 25.432C8.82933 24.6293 8.22733 24.0847 7.31 23.798C6.45 23.454 5.074 23.282 3.182 23.282C3.01 23.282 2.924 23.11 2.924 22.766C2.924 22.422 3.01 22.25 3.182 22.25L7.654 22.336C10.1767 22.4507 12.212 22.508 13.76 22.508C15.0787 22.508 16.684 22.422 18.576 22.25C19.264 22.1927 20.1813 22.1353 21.328 22.078C22.532 22.0207 23.9367 21.992 25.542 21.992C31.218 21.992 35.69 23.196 38.958 25.604C42.2833 28.012 43.946 31.71 43.946 36.698C43.946 40.31 43 43.3773 41.108 45.9C39.2733 48.4227 36.894 50.3147 33.97 51.576C31.1033 52.8373 28.1507 53.468 25.112 53.468C23.5067 53.468 22.1593 53.3247 21.07 53.038C20.898 53.038 20.812 52.8947 20.812 52.608C20.812 52.436 20.8407 52.264 20.898 52.092C21.0127 51.92 21.1273 51.8627 21.242 51.92C22.1593 52.1493 23.1627 52.264 24.252 52.264C27.2333 52.264 29.756 51.0313 31.82 48.566C33.884 46.1007 34.916 42.5747 34.916 37.988C34.916 33.4587 33.8553 29.9613 31.734 27.496C29.6127 24.9733 26.6887 23.712 22.962 23.712C21.586 23.712 20.5253 23.8553 19.78 24.142C19.092 24.4287 18.6047 24.9733 18.318 25.776C18.0313 26.5213 17.888 27.7253 17.888 29.388V68.69Z" fill="#983E3E"/>
<path d="M55.766 41.246C55.766 41.926 55.834 42.436 55.97 42.776C56.106 43.0933 56.3667 43.3087 56.752 43.422C57.16 43.5353 57.7947 43.592 58.656 43.592C58.724 43.592 58.758 43.66 58.758 43.796C58.758 43.932 58.724 44 58.656 44C57.976 44 57.432 43.9887 57.024 43.966L54.61 43.932L52.264 43.966C51.856 43.9887 51.3007 44 50.598 44C50.53 44 50.496 43.932 50.496 43.796C50.496 43.66 50.53 43.592 50.598 43.592C51.4593 43.592 52.0827 43.5353 52.468 43.422C52.876 43.3087 53.148 43.0933 53.284 42.776C53.4427 42.436 53.522 41.926 53.522 41.246V25.504C53.522 24.824 53.4427 24.3253 53.284 24.008C53.148 23.6907 52.876 23.4753 52.468 23.362C52.0827 23.226 51.4593 23.158 50.598 23.158C50.53 23.158 50.496 23.09 50.496 22.954C50.496 22.818 50.53 22.75 50.598 22.75L52.264 22.784C53.216 22.8293 53.998 22.852 54.61 22.852C55.29 22.852 56.106 22.8293 57.058 22.784L58.656 22.75C58.724 22.75 58.758 22.818 58.758 22.954C58.758 23.09 58.724 23.158 58.656 23.158C57.8173 23.158 57.194 23.226 56.786 23.362C56.4007 23.498 56.1287 23.736 55.97 24.076C55.834 24.3933 55.766 24.892 55.766 25.572V41.246ZM65.2191 26.728C65.2191 27.612 65.4344 28.3827 65.8651 29.04C66.2957 29.6973 66.8171 30.2527 67.4291 30.706C68.0411 31.1367 68.9024 31.692 70.0131 32.372C71.1917 33.0747 72.1097 33.664 72.7671 34.14C73.4244 34.616 73.9797 35.228 74.4331 35.976C74.9091 36.7013 75.1471 37.574 75.1471 38.594C75.1471 39.682 74.8751 40.668 74.3311 41.552C73.7871 42.436 72.9824 43.1387 71.9171 43.66C70.8744 44.1587 69.6164 44.408 68.1431 44.408C66.3977 44.408 64.7997 44.0113 63.3491 43.218C63.2357 43.15 63.1564 43.0707 63.1111 42.98C63.0884 42.8893 63.0657 42.7533 63.0431 42.572L62.6011 37.948C62.5784 37.8573 62.6237 37.8007 62.7371 37.778C62.8731 37.7553 62.9524 37.7893 62.9751 37.88C63.3377 39.512 64.0064 40.9173 64.9811 42.096C65.9784 43.2747 67.2931 43.864 68.9251 43.864C70.0584 43.864 71.0104 43.558 71.7811 42.946C72.5744 42.3113 72.9711 41.314 72.9711 39.954C72.9711 38.934 72.7444 38.05 72.2911 37.302C71.8377 36.554 71.2824 35.942 70.6251 35.466C69.9904 34.9673 69.1177 34.3893 68.0071 33.732C66.9191 33.0747 66.0577 32.508 65.4231 32.032C64.8111 31.556 64.2897 30.9553 63.8591 30.23C63.4284 29.5047 63.2131 28.6547 63.2131 27.68C63.2131 26.5467 63.5077 25.5833 64.0971 24.79C64.7091 23.974 65.4911 23.3733 66.4431 22.988C67.4177 22.58 68.4491 22.376 69.5371 22.376C70.8744 22.376 72.2004 22.648 73.5151 23.192C73.8551 23.3053 74.0251 23.498 74.0251 23.77L74.2631 27.68C74.2631 27.7707 74.2064 27.816 74.0931 27.816C73.9797 27.816 73.9117 27.7707 73.8891 27.68C73.7077 26.5013 73.2204 25.4133 72.4271 24.416C71.6337 23.396 70.4891 22.886 68.9931 22.886C67.7237 22.886 66.7717 23.26 66.1371 24.008C65.5251 24.7333 65.2191 25.64 65.2191 26.728ZM100.756 43.592C100.847 43.592 100.892 43.66 100.892 43.796C100.892 43.932 100.847 44 100.756 44C100.326 44 99.6569 43.9773 98.7502 43.932C97.8436 43.8867 97.1862 43.864 96.7782 43.864C96.2796 43.864 95.6449 43.8867 94.8742 43.932C94.1489 43.9773 93.5936 44 93.2082 44C93.1176 44 93.0722 43.932 93.0722 43.796C93.0722 43.66 93.1176 43.592 93.2082 43.592C94.0469 43.592 94.6589 43.5127 95.0442 43.354C95.4296 43.1953 95.6222 42.9233 95.6222 42.538C95.6222 42.2207 95.4749 41.7333 95.1802 41.076L91.2702 32.746H84.8442L81.9202 39.682C81.6029 40.4527 81.4442 41.0873 81.4442 41.586C81.4442 42.9233 82.5549 43.592 84.7762 43.592C84.8896 43.592 84.9462 43.66 84.9462 43.796C84.9462 43.932 84.8896 44 84.7762 44C84.3682 44 83.7789 43.9773 83.0082 43.932C82.1469 43.8867 81.3989 43.864 80.7642 43.864C80.1749 43.864 79.4949 43.8867 78.7242 43.932C78.0442 43.9773 77.4776 44 77.0242 44C76.9109 44 76.8542 43.932 76.8542 43.796C76.8542 43.66 76.9109 43.592 77.0242 43.592C77.6589 43.592 78.1916 43.4787 78.6222 43.252C79.0756 43.0027 79.4949 42.5833 79.8802 41.994C80.2882 41.382 80.7302 40.5093 81.2062 39.376L88.3802 22.444C88.4256 22.376 88.5049 22.342 88.6182 22.342C88.7316 22.342 88.7996 22.376 88.8222 22.444L96.8462 39.342C97.6169 41.0193 98.2742 42.1527 98.8182 42.742C99.3622 43.3087 100.008 43.592 100.756 43.592ZM85.1502 32.032H90.9302L87.8702 25.572L85.1502 32.032ZM124.085 43.592C124.131 43.592 124.153 43.66 124.153 43.796C124.153 43.932 124.131 44 124.085 44H119.699C119.133 44 118.067 43.0367 116.503 41.11C114.962 39.1607 113.081 36.452 110.859 32.984C110.315 33.1427 109.703 33.222 109.023 33.222C108.593 33.222 108.083 33.1993 107.493 33.154V41.246C107.493 41.9487 107.561 42.4587 107.697 42.776C107.833 43.0933 108.094 43.3087 108.479 43.422C108.887 43.5353 109.522 43.592 110.383 43.592C110.451 43.592 110.485 43.66 110.485 43.796C110.485 43.932 110.451 44 110.383 44C109.681 44 109.125 43.9887 108.717 43.966L106.371 43.932L104.059 43.966C103.651 43.9887 103.073 44 102.325 44C102.28 44 102.257 43.932 102.257 43.796C102.257 43.66 102.28 43.592 102.325 43.592C103.187 43.592 103.821 43.5353 104.229 43.422C104.637 43.286 104.921 43.0593 105.079 42.742C105.238 42.4247 105.317 41.926 105.317 41.246V25.504C105.317 24.824 105.238 24.3253 105.079 24.008C104.943 23.6907 104.671 23.4753 104.263 23.362C103.878 23.226 103.255 23.158 102.393 23.158C102.325 23.158 102.291 23.09 102.291 22.954C102.291 22.818 102.325 22.75 102.393 22.75L104.059 22.784C105.011 22.8293 105.782 22.852 106.371 22.852C106.779 22.852 107.165 22.8407 107.527 22.818C107.89 22.7953 108.207 22.7727 108.479 22.75C109.205 22.682 109.862 22.648 110.451 22.648C112.287 22.648 113.704 23.022 114.701 23.77C115.699 24.518 116.197 25.5607 116.197 26.898C116.197 27.986 115.88 29.0173 115.245 29.992C114.611 30.944 113.772 31.7033 112.729 32.27C114.656 35.1487 116.277 37.404 117.591 39.036C118.906 40.6453 120.073 41.8127 121.093 42.538C122.113 43.2407 123.111 43.592 124.085 43.592ZM107.493 32.304C108.06 32.3947 108.729 32.44 109.499 32.44C111.063 32.44 112.185 32.1113 112.865 31.454C113.545 30.774 113.885 29.652 113.885 28.088C113.885 24.8013 112.503 23.158 109.737 23.158C109.125 23.158 108.661 23.2147 108.343 23.328C108.049 23.4187 107.833 23.634 107.697 23.974C107.561 24.2913 107.493 24.824 107.493 25.572V32.304ZM139.89 38.934C139.89 38.8887 139.936 38.866 140.026 38.866C140.094 38.866 140.151 38.8773 140.196 38.9C140.264 38.9227 140.298 38.9567 140.298 39.002C140.094 40.43 139.992 41.926 139.992 43.49C139.992 43.6713 139.947 43.8073 139.856 43.898C139.788 43.966 139.652 44 139.448 44H125.202C125.157 44 125.134 43.932 125.134 43.796C125.134 43.66 125.157 43.592 125.202 43.592C126.064 43.592 126.687 43.5353 127.072 43.422C127.48 43.3087 127.752 43.0933 127.888 42.776C128.047 42.436 128.126 41.926 128.126 41.246V25.504C128.126 24.824 128.047 24.3253 127.888 24.008C127.752 23.6907 127.48 23.4753 127.072 23.362C126.687 23.226 126.064 23.158 125.202 23.158C125.157 23.158 125.134 23.09 125.134 22.954C125.134 22.818 125.157 22.75 125.202 22.75H138.87C139.074 22.75 139.176 22.852 139.176 23.056L139.244 27.238C139.244 27.306 139.188 27.3513 139.074 27.374C138.961 27.374 138.893 27.34 138.87 27.272C138.802 26.0707 138.44 25.1413 137.782 24.484C137.125 23.804 136.252 23.464 135.164 23.464H133.09C132.297 23.464 131.708 23.532 131.322 23.668C130.96 23.7813 130.699 23.9967 130.54 24.314C130.404 24.6087 130.336 25.062 130.336 25.674V32.576H134.484C135.572 32.576 136.343 32.3947 136.796 32.032C137.272 31.6693 137.51 31.0573 137.51 30.196C137.51 30.1507 137.578 30.128 137.714 30.128C137.85 30.128 137.918 30.1507 137.918 30.196L137.884 32.95C137.884 33.6073 137.896 34.106 137.918 34.446L137.952 36.078C137.952 36.1233 137.884 36.146 137.748 36.146C137.612 36.146 137.544 36.1233 137.544 36.078C137.544 35.0807 137.295 34.3667 136.796 33.936C136.32 33.5053 135.516 33.29 134.382 33.29H130.336V41.11C130.336 41.7447 130.404 42.2093 130.54 42.504C130.676 42.7987 130.926 43.0027 131.288 43.116C131.651 43.2293 132.218 43.286 132.988 43.286H135.708C136.796 43.286 137.703 42.9007 138.428 42.13C139.154 41.3593 139.641 40.294 139.89 38.934ZM164.748 22.75C164.816 22.75 164.85 22.818 164.85 22.954C164.85 23.09 164.816 23.158 164.748 23.158C163.977 23.158 163.309 23.362 162.742 23.77C162.175 24.178 161.699 24.8693 161.314 25.844L154.072 43.966C154.049 44.0567 153.925 44.102 153.698 44.102C153.517 44.102 153.392 44.0567 153.324 43.966L144.858 25.572C144.473 24.688 144.065 24.0647 143.634 23.702C143.203 23.3393 142.648 23.158 141.968 23.158C141.9 23.158 141.866 23.09 141.866 22.954C141.866 22.818 141.9 22.75 141.968 22.75L143.26 22.784C143.895 22.8293 144.405 22.852 144.79 22.852C145.697 22.852 146.671 22.8293 147.714 22.784L149.108 22.75C149.176 22.75 149.21 22.818 149.21 22.954C149.21 23.09 149.176 23.158 149.108 23.158C148.405 23.158 147.873 23.2487 147.51 23.43C147.17 23.6113 147 23.9173 147 24.348C147 24.62 147.102 24.9827 147.306 25.436L154.412 41.008L160.532 25.674C160.713 25.198 160.804 24.824 160.804 24.552C160.804 24.076 160.589 23.7247 160.158 23.498C159.727 23.2713 159.059 23.158 158.152 23.158C158.084 23.158 158.05 23.09 158.05 22.954C158.05 22.818 158.084 22.75 158.152 22.75L159.614 22.784C160.385 22.8293 161.087 22.852 161.722 22.852C162.198 22.852 162.731 22.8293 163.32 22.784L164.748 22.75ZM185.524 43.592C185.614 43.592 185.66 43.66 185.66 43.796C185.66 43.932 185.614 44 185.524 44C185.093 44 184.424 43.9773 183.518 43.932C182.611 43.8867 181.954 43.864 181.546 43.864C181.047 43.864 180.412 43.8867 179.642 43.932C178.916 43.9773 178.361 44 177.976 44C177.885 44 177.84 43.932 177.84 43.796C177.84 43.66 177.885 43.592 177.976 43.592C178.814 43.592 179.426 43.5127 179.812 43.354C180.197 43.1953 180.39 42.9233 180.39 42.538C180.39 42.2207 180.242 41.7333 179.948 41.076L176.038 32.746H169.612L166.688 39.682C166.37 40.4527 166.212 41.0873 166.212 41.586C166.212 42.9233 167.322 43.592 169.544 43.592C169.657 43.592 169.714 43.66 169.714 43.796C169.714 43.932 169.657 44 169.544 44C169.136 44 168.546 43.9773 167.776 43.932C166.914 43.8867 166.166 43.864 165.532 43.864C164.942 43.864 164.262 43.8867 163.492 43.932C162.812 43.9773 162.245 44 161.792 44C161.678 44 161.622 43.932 161.622 43.796C161.622 43.66 161.678 43.592 161.792 43.592C162.426 43.592 162.959 43.4787 163.39 43.252C163.843 43.0027 164.262 42.5833 164.648 41.994C165.056 41.382 165.498 40.5093 165.974 39.376L173.148 22.444C173.193 22.376 173.272 22.342 173.386 22.342C173.499 22.342 173.567 22.376 173.59 22.444L181.614 39.342C182.384 41.0193 183.042 42.1527 183.586 42.742C184.13 43.3087 184.776 43.592 185.524 43.592ZM169.918 32.032H175.698L172.638 25.572L169.918 32.032Z" fill="black"/>
<path d="M55.766 73.246C55.766 73.926 55.834 74.436 55.97 74.776C56.106 75.0933 56.3667 75.3087 56.752 75.422C57.16 75.5353 57.7947 75.592 58.656 75.592C58.724 75.592 58.758 75.66 58.758 75.796C58.758 75.932 58.724 76 58.656 76C57.976 76 57.432 75.9887 57.024 75.966L54.61 75.932L52.264 75.966C51.856 75.9887 51.3007 76 50.598 76C50.53 76 50.496 75.932 50.496 75.796C50.496 75.66 50.53 75.592 50.598 75.592C51.4593 75.592 52.0827 75.5353 52.468 75.422C52.876 75.3087 53.148 75.0933 53.284 74.776C53.4427 74.436 53.522 73.926 53.522 73.246V57.504C53.522 56.824 53.4427 56.3253 53.284 56.008C53.148 55.6907 52.876 55.4753 52.468 55.362C52.0827 55.226 51.4593 55.158 50.598 55.158C50.53 55.158 50.496 55.09 50.496 54.954C50.496 54.818 50.53 54.75 50.598 54.75L52.264 54.784C53.216 54.8293 53.998 54.852 54.61 54.852C55.29 54.852 56.106 54.8293 57.058 54.784L58.656 54.75C58.724 54.75 58.758 54.818 58.758 54.954C58.758 55.09 58.724 55.158 58.656 55.158C57.8173 55.158 57.194 55.226 56.786 55.362C56.4007 55.498 56.1287 55.736 55.97 56.076C55.834 56.3933 55.766 56.892 55.766 57.572V73.246ZM66.5791 73.11C66.5791 73.7673 66.6471 74.2433 66.7831 74.538C66.9191 74.8327 67.1684 75.0367 67.5311 75.15C67.8937 75.2407 68.4831 75.286 69.2991 75.286H73.0051C74.2971 75.286 75.3284 74.8893 76.0991 74.096C76.8697 73.3027 77.3797 72.2033 77.6291 70.798C77.6291 70.73 77.6857 70.7073 77.7991 70.73C77.9351 70.73 78.0031 70.764 78.0031 70.832C77.7991 72.7133 77.6971 74.266 77.6971 75.49C77.6971 75.6713 77.6631 75.8073 77.5951 75.898C77.5271 75.966 77.3911 76 77.1871 76H61.4791C61.4337 76 61.4111 75.932 61.4111 75.796C61.4111 75.66 61.4337 75.592 61.4791 75.592C62.3404 75.592 62.9637 75.5353 63.3491 75.422C63.7571 75.3087 64.0291 75.0933 64.1651 74.776C64.3011 74.436 64.3691 73.926 64.3691 73.246V57.504C64.3691 56.824 64.3011 56.3253 64.1651 56.008C64.0291 55.6907 63.7571 55.4753 63.3491 55.362C62.9637 55.226 62.3404 55.158 61.4791 55.158C61.4337 55.158 61.4111 55.09 61.4111 54.954C61.4111 54.818 61.4337 54.75 61.4791 54.75L63.1451 54.784C64.0971 54.8293 64.8677 54.852 65.4571 54.852C66.0917 54.852 66.8851 54.8293 67.8371 54.784L69.4691 54.75C69.5371 54.75 69.5711 54.818 69.5711 54.954C69.5711 55.09 69.5371 55.158 69.4691 55.158C68.6304 55.158 68.0071 55.226 67.5991 55.362C67.2137 55.4753 66.9417 55.702 66.7831 56.042C66.6471 56.3593 66.5791 56.858 66.5791 57.538V73.11ZM102.184 75.592C102.275 75.592 102.32 75.66 102.32 75.796C102.32 75.932 102.275 76 102.184 76C101.753 76 101.085 75.9773 100.178 75.932C99.2713 75.8867 98.614 75.864 98.206 75.864C97.7073 75.864 97.0726 75.8867 96.302 75.932C95.5766 75.9773 95.0213 76 94.636 76C94.5453 76 94.5 75.932 94.5 75.796C94.5 75.66 94.5453 75.592 94.636 75.592C95.4746 75.592 96.0866 75.5127 96.472 75.354C96.8573 75.1953 97.05 74.9233 97.05 74.538C97.05 74.2207 96.9026 73.7333 96.608 73.076L92.698 64.746H86.272L83.348 71.682C83.0306 72.4527 82.872 73.0873 82.872 73.586C82.872 74.9233 83.9826 75.592 86.204 75.592C86.3173 75.592 86.374 75.66 86.374 75.796C86.374 75.932 86.3173 76 86.204 76C85.796 76 85.2066 75.9773 84.436 75.932C83.5746 75.8867 82.8266 75.864 82.192 75.864C81.6026 75.864 80.9226 75.8867 80.152 75.932C79.472 75.9773 78.9053 76 78.452 76C78.3386 76 78.282 75.932 78.282 75.796C78.282 75.66 78.3386 75.592 78.452 75.592C79.0866 75.592 79.6193 75.4787 80.05 75.252C80.5033 75.0027 80.9226 74.5833 81.308 73.994C81.716 73.382 82.158 72.5093 82.634 71.376L89.808 54.444C89.8533 54.376 89.9326 54.342 90.046 54.342C90.1593 54.342 90.2273 54.376 90.25 54.444L98.274 71.342C99.0446 73.0193 99.702 74.1527 100.246 74.742C100.79 75.3087 101.436 75.592 102.184 75.592ZM86.578 64.032H92.358L89.298 57.572L86.578 64.032ZM106.326 55.362C104.898 55.362 103.822 55.7247 103.096 56.45C102.394 57.1753 101.884 58.4107 101.566 60.156C101.566 60.2013 101.498 60.224 101.362 60.224C101.249 60.224 101.192 60.2013 101.192 60.156C101.283 59.34 101.385 58.2747 101.498 56.96C101.612 55.6453 101.668 54.6593 101.668 54.002C101.668 53.8887 101.725 53.832 101.838 53.832C101.974 53.832 102.042 53.8887 102.042 54.002C102.042 54.5007 102.654 54.75 103.878 54.75C105.805 54.818 108.083 54.852 110.712 54.852C112.05 54.852 113.466 54.8293 114.962 54.784L117.274 54.75C118.09 54.75 118.691 54.6933 119.076 54.58C119.484 54.4667 119.745 54.24 119.858 53.9C119.881 53.8093 119.949 53.764 120.062 53.764C120.176 53.764 120.232 53.8093 120.232 53.9C120.164 54.5573 120.096 55.5547 120.028 56.892C119.96 58.2293 119.926 59.3173 119.926 60.156C119.926 60.2013 119.858 60.224 119.722 60.224C119.586 60.224 119.518 60.2013 119.518 60.156C119.45 58.388 119.088 57.1527 118.43 56.45C117.773 55.7247 116.685 55.362 115.166 55.362C114.146 55.362 113.421 55.4073 112.99 55.498C112.56 55.5887 112.265 55.7813 112.106 56.076C111.948 56.3707 111.868 56.8693 111.868 57.572V73.246C111.868 73.9487 111.948 74.4587 112.106 74.776C112.265 75.0933 112.571 75.3087 113.024 75.422C113.478 75.5353 114.192 75.592 115.166 75.592C115.234 75.592 115.268 75.66 115.268 75.796C115.268 75.932 115.234 76 115.166 76C114.418 76 113.818 75.9887 113.364 75.966L110.712 75.932L108.162 75.966C107.709 75.9887 107.086 76 106.292 76C106.247 76 106.224 75.932 106.224 75.796C106.224 75.66 106.247 75.592 106.292 75.592C107.267 75.592 107.981 75.5353 108.434 75.422C108.888 75.3087 109.194 75.0933 109.352 74.776C109.534 74.436 109.624 73.926 109.624 73.246V57.504C109.624 56.8013 109.545 56.314 109.386 56.042C109.228 55.7473 108.933 55.566 108.502 55.498C108.072 55.4073 107.346 55.362 106.326 55.362ZM137.599 70.934C137.599 70.8887 137.645 70.866 137.735 70.866C137.803 70.866 137.86 70.8773 137.905 70.9C137.973 70.9227 138.007 70.9567 138.007 71.002C137.803 72.43 137.701 73.926 137.701 75.49C137.701 75.6713 137.656 75.8073 137.565 75.898C137.497 75.966 137.361 76 137.157 76H122.911C122.866 76 122.843 75.932 122.843 75.796C122.843 75.66 122.866 75.592 122.911 75.592C123.773 75.592 124.396 75.5353 124.781 75.422C125.189 75.3087 125.461 75.0933 125.597 74.776C125.756 74.436 125.835 73.926 125.835 73.246V57.504C125.835 56.824 125.756 56.3253 125.597 56.008C125.461 55.6907 125.189 55.4753 124.781 55.362C124.396 55.226 123.773 55.158 122.911 55.158C122.866 55.158 122.843 55.09 122.843 54.954C122.843 54.818 122.866 54.75 122.911 54.75H136.579C136.783 54.75 136.885 54.852 136.885 55.056L136.953 59.238C136.953 59.306 136.897 59.3513 136.783 59.374C136.67 59.374 136.602 59.34 136.579 59.272C136.511 58.0707 136.149 57.1413 135.491 56.484C134.834 55.804 133.961 55.464 132.873 55.464H130.799C130.006 55.464 129.417 55.532 129.031 55.668C128.669 55.7813 128.408 55.9967 128.249 56.314C128.113 56.6087 128.045 57.062 128.045 57.674V64.576H132.193C133.281 64.576 134.052 64.3947 134.505 64.032C134.981 63.6693 135.219 63.0573 135.219 62.196C135.219 62.1507 135.287 62.128 135.423 62.128C135.559 62.128 135.627 62.1507 135.627 62.196L135.593 64.95C135.593 65.6073 135.605 66.106 135.627 66.446L135.661 68.078C135.661 68.1233 135.593 68.146 135.457 68.146C135.321 68.146 135.253 68.1233 135.253 68.078C135.253 67.0807 135.004 66.3667 134.505 65.936C134.029 65.5053 133.225 65.29 132.091 65.29H128.045V73.11C128.045 73.7447 128.113 74.2093 128.249 74.504C128.385 74.7987 128.635 75.0027 128.997 75.116C129.36 75.2293 129.927 75.286 130.697 75.286H133.417C134.505 75.286 135.412 74.9007 136.137 74.13C136.863 73.3593 137.35 72.294 137.599 70.934ZM144.641 58.728C144.641 59.612 144.856 60.3827 145.287 61.04C145.718 61.6973 146.239 62.2527 146.851 62.706C147.463 63.1367 148.324 63.692 149.435 64.372C150.614 65.0747 151.532 65.664 152.189 66.14C152.846 66.616 153.402 67.228 153.855 67.976C154.331 68.7013 154.569 69.574 154.569 70.594C154.569 71.682 154.297 72.668 153.753 73.552C153.209 74.436 152.404 75.1387 151.339 75.66C150.296 76.1587 149.038 76.408 147.565 76.408C145.82 76.408 144.222 76.0113 142.771 75.218C142.658 75.15 142.578 75.0707 142.533 74.98C142.51 74.8893 142.488 74.7533 142.465 74.572L142.023 69.948C142 69.8573 142.046 69.8007 142.159 69.778C142.295 69.7553 142.374 69.7893 142.397 69.88C142.76 71.512 143.428 72.9173 144.403 74.096C145.4 75.2747 146.715 75.864 148.347 75.864C149.48 75.864 150.432 75.558 151.203 74.946C151.996 74.3113 152.393 73.314 152.393 71.954C152.393 70.934 152.166 70.05 151.713 69.302C151.26 68.554 150.704 67.942 150.047 67.466C149.412 66.9673 148.54 66.3893 147.429 65.732C146.341 65.0747 145.48 64.508 144.845 64.032C144.233 63.556 143.712 62.9553 143.281 62.23C142.85 61.5047 142.635 60.6547 142.635 59.68C142.635 58.5467 142.93 57.5833 143.519 56.79C144.131 55.974 144.913 55.3733 145.865 54.988C146.84 54.58 147.871 54.376 148.959 54.376C150.296 54.376 151.622 54.648 152.937 55.192C153.277 55.3053 153.447 55.498 153.447 55.77L153.685 59.68C153.685 59.7707 153.628 59.816 153.515 59.816C153.402 59.816 153.334 59.7707 153.311 59.68C153.13 58.5013 152.642 57.4133 151.849 56.416C151.056 55.396 149.911 54.886 148.415 54.886C147.146 54.886 146.194 55.26 145.559 56.008C144.947 56.7333 144.641 57.64 144.641 58.728Z" fill="black"/>
</svg>
