<svg width="45" height="45" viewBox="0 0 45 45" fill="none" xmlns="http://www.w3.org/2000/svg">
<circle cx="22.5" cy="22.5" r="19.5" fill="#FAEBE7"/>
<circle cx="22.5" cy="22.5" r="22" stroke="#FAEBE7"/>
<path d="M21.8314 25.96C21.8314 25.304 21.9354 24.728 22.1434 24.232C22.3674 23.736 22.6394 23.312 22.9594 22.96C23.2794 22.608 23.6954 22.208 24.2074 21.76C24.8954 21.152 25.3994 20.624 25.7194 20.176C26.0554 19.712 26.2234 19.152 26.2234 18.496C26.2234 17.616 25.8794 16.912 25.1914 16.384C24.5034 15.84 23.5594 15.568 22.3594 15.568C20.3754 15.568 18.8474 16.216 17.7754 17.512L16.5034 16.552C17.8634 14.888 19.8554 14.056 22.4794 14.056C24.1594 14.056 25.4954 14.432 26.4874 15.184C27.4954 15.936 27.9994 16.952 27.9994 18.232C27.9994 18.888 27.8874 19.472 27.6634 19.984C27.4554 20.48 27.1914 20.904 26.8714 21.256C26.5674 21.608 26.1594 22.016 25.6474 22.48C24.9594 23.104 24.4474 23.664 24.1114 24.16C23.7754 24.64 23.6074 25.24 23.6074 25.96H21.8314ZM22.7194 31.12C22.3674 31.12 22.0714 31 21.8314 30.76C21.5914 30.504 21.4714 30.208 21.4714 29.872C21.4714 29.52 21.5914 29.232 21.8314 29.008C22.0714 28.768 22.3674 28.648 22.7194 28.648C23.0874 28.648 23.3914 28.768 23.6314 29.008C23.8714 29.232 23.9914 29.52 23.9914 29.872C23.9914 30.208 23.8634 30.504 23.6074 30.76C23.3674 31 23.0714 31.12 22.7194 31.12Z" fill="black"/>
</svg>
