<svg width="482" height="109" viewBox="0 0 482 109" fill="none" xmlns="http://www.w3.org/2000/svg">
<path d="M152.744 40.264C153.64 40.632 154.336 41.168 154.832 41.872C155.344 42.576 155.6 43.376 155.6 44.272C155.6 45.328 155.224 46.248 154.472 47.032C153.736 47.8 152.736 48.392 151.472 48.808C150.224 49.208 148.832 49.408 147.296 49.408C144.848 49.408 142.52 48.92 140.312 47.944L141.968 44.032C142.752 44.352 143.568 44.6 144.416 44.776C145.264 44.936 146.064 45.016 146.816 45.016C147.728 45.016 148.464 44.888 149.024 44.632C149.6 44.376 149.888 44 149.888 43.504C149.888 42.832 149.336 42.496 148.232 42.496H143.696V38.416H147.752C148.232 38.416 148.592 38.328 148.832 38.152C149.088 37.976 149.216 37.728 149.216 37.408C149.216 36.992 148.992 36.672 148.544 36.448C148.112 36.224 147.536 36.112 146.816 36.112C146.144 36.112 145.416 36.208 144.632 36.4C143.848 36.592 143.104 36.864 142.4 37.216L140.744 33.016C142.6 32.168 144.616 31.744 146.792 31.744C148.248 31.744 149.592 31.944 150.824 32.344C152.072 32.744 153.064 33.328 153.8 34.096C154.552 34.848 154.928 35.736 154.928 36.76C154.928 37.512 154.736 38.192 154.352 38.8C153.968 39.408 153.432 39.896 152.744 40.264ZM162.989 35.632C165.293 35.632 167.053 36.152 168.269 37.192C169.485 38.216 170.093 39.8 170.093 41.944V49H165.053V47.272C164.429 48.584 163.189 49.24 161.333 49.24C160.293 49.24 159.405 49.064 158.669 48.712C157.949 48.344 157.397 47.856 157.013 47.248C156.645 46.624 156.461 45.928 156.461 45.16C156.461 43.864 156.957 42.88 157.949 42.208C158.941 41.536 160.445 41.2 162.461 41.2H164.645C164.469 40.176 163.645 39.664 162.173 39.664C161.581 39.664 160.981 39.76 160.373 39.952C159.765 40.128 159.245 40.376 158.813 40.696L157.085 37.12C157.837 36.656 158.741 36.296 159.797 36.04C160.869 35.768 161.933 35.632 162.989 35.632ZM162.965 45.976C163.349 45.976 163.693 45.872 163.997 45.664C164.301 45.456 164.525 45.144 164.669 44.728V43.816H163.325C162.221 43.816 161.669 44.184 161.669 44.92C161.669 45.224 161.781 45.48 162.005 45.688C162.245 45.88 162.565 45.976 162.965 45.976ZM181.063 35.632C182.215 35.632 183.271 35.912 184.231 36.472C185.207 37.016 185.975 37.808 186.535 38.848C187.111 39.888 187.399 41.088 187.399 42.448C187.399 43.808 187.111 45.008 186.535 46.048C185.975 47.072 185.207 47.864 184.231 48.424C183.271 48.968 182.215 49.24 181.063 49.24C179.607 49.24 178.495 48.864 177.727 48.112V53.656H172.303V35.872H177.463V36.952C178.247 36.072 179.447 35.632 181.063 35.632ZM179.767 45.016C180.391 45.016 180.903 44.792 181.303 44.344C181.703 43.896 181.903 43.264 181.903 42.448C181.903 41.632 181.703 41 181.303 40.552C180.903 40.088 180.391 39.856 179.767 39.856C179.143 39.856 178.631 40.088 178.231 40.552C177.831 41 177.631 41.632 177.631 42.448C177.631 43.264 177.831 43.896 178.231 44.344C178.631 44.792 179.143 45.016 179.767 45.016ZM202.955 42.424C202.955 42.504 202.931 42.928 202.883 43.696H193.763C193.955 44.192 194.275 44.576 194.723 44.848C195.171 45.104 195.731 45.232 196.403 45.232C196.979 45.232 197.459 45.16 197.843 45.016C198.243 44.872 198.675 44.624 199.139 44.272L201.971 47.128C200.691 48.536 198.779 49.24 196.235 49.24C194.651 49.24 193.259 48.952 192.059 48.376C190.859 47.784 189.931 46.968 189.275 45.928C188.619 44.888 188.291 43.72 188.291 42.424C188.291 41.112 188.611 39.944 189.251 38.92C189.907 37.88 190.795 37.072 191.915 36.496C193.051 35.92 194.323 35.632 195.731 35.632C197.059 35.632 198.267 35.896 199.355 36.424C200.459 36.952 201.331 37.728 201.971 38.752C202.627 39.776 202.955 41 202.955 42.424ZM195.779 39.328C195.219 39.328 194.755 39.48 194.387 39.784C194.019 40.088 193.779 40.52 193.667 41.08H197.891C197.779 40.536 197.539 40.112 197.171 39.808C196.803 39.488 196.339 39.328 195.779 39.328ZM216.377 40.096H210.305V49H204.905V35.872H216.377V40.096ZM217.936 35.872H223.336V41.8L227.872 35.872H232.864V49H227.464V43.048L222.952 49H217.936V35.872ZM242.285 49.24C240.797 49.24 239.461 48.952 238.277 48.376C237.109 47.8 236.189 46.992 235.517 45.952C234.861 44.912 234.533 43.736 234.533 42.424C234.533 41.112 234.861 39.944 235.517 38.92C236.189 37.88 237.109 37.072 238.277 36.496C239.461 35.92 240.797 35.632 242.285 35.632C243.885 35.632 245.253 35.976 246.389 36.664C247.525 37.352 248.309 38.304 248.741 39.52L244.541 41.584C244.029 40.432 243.269 39.856 242.261 39.856C241.621 39.856 241.085 40.08 240.653 40.528C240.237 40.976 240.029 41.608 240.029 42.424C240.029 43.256 240.237 43.896 240.653 44.344C241.085 44.792 241.621 45.016 242.261 45.016C243.269 45.016 244.029 44.44 244.541 43.288L248.741 45.352C248.309 46.568 247.525 47.52 246.389 48.208C245.253 48.896 243.885 49.24 242.285 49.24ZM262.782 40.096H258.774V49H253.374V40.096H249.366V35.872H262.782V40.096ZM273.102 35.632C274.254 35.632 275.31 35.912 276.27 36.472C277.246 37.016 278.014 37.808 278.574 38.848C279.15 39.888 279.438 41.088 279.438 42.448C279.438 43.808 279.15 45.008 278.574 46.048C278.014 47.072 277.246 47.864 276.27 48.424C275.31 48.968 274.254 49.24 273.102 49.24C271.646 49.24 270.534 48.864 269.766 48.112V53.656H264.342V35.872H269.502V36.952C270.286 36.072 271.486 35.632 273.102 35.632ZM271.806 45.016C272.43 45.016 272.942 44.792 273.342 44.344C273.742 43.896 273.942 43.264 273.942 42.448C273.942 41.632 273.742 41 273.342 40.552C272.942 40.088 272.43 39.856 271.806 39.856C271.182 39.856 270.67 40.088 270.27 40.552C269.87 41 269.67 41.632 269.67 42.448C269.67 43.264 269.87 43.896 270.27 44.344C270.67 44.792 271.182 45.016 271.806 45.016ZM281.194 35.872H286.594V41.8L291.13 35.872H296.122V49H290.722V43.048L286.21 49H281.194V35.872ZM307.415 35.632C308.567 35.632 309.623 35.912 310.583 36.472C311.559 37.016 312.327 37.808 312.887 38.848C313.463 39.888 313.751 41.088 313.751 42.448C313.751 43.808 313.463 45.008 312.887 46.048C312.327 47.072 311.559 47.864 310.583 48.424C309.623 48.968 308.567 49.24 307.415 49.24C305.959 49.24 304.847 48.864 304.079 48.112V53.656H298.655V35.872H303.815V36.952C304.599 36.072 305.799 35.632 307.415 35.632ZM306.119 45.016C306.743 45.016 307.255 44.792 307.655 44.344C308.055 43.896 308.255 43.264 308.255 42.448C308.255 41.632 308.055 41 307.655 40.552C307.255 40.088 306.743 39.856 306.119 39.856C305.495 39.856 304.983 40.088 304.583 40.552C304.183 41 303.983 41.632 303.983 42.448C303.983 43.264 304.183 43.896 304.583 44.344C304.983 44.792 305.495 45.016 306.119 45.016ZM322.274 49.24C320.818 49.24 319.506 48.952 318.338 48.376C317.186 47.784 316.282 46.976 315.626 45.952C314.97 44.912 314.642 43.736 314.642 42.424C314.642 41.112 314.97 39.944 315.626 38.92C316.282 37.88 317.186 37.072 318.338 36.496C319.506 35.92 320.818 35.632 322.274 35.632C323.746 35.632 325.058 35.92 326.21 36.496C327.378 37.072 328.282 37.88 328.922 38.92C329.578 39.944 329.906 41.112 329.906 42.424C329.906 43.736 329.578 44.912 328.922 45.952C328.282 46.976 327.378 47.784 326.21 48.376C325.058 48.952 323.746 49.24 322.274 49.24ZM322.274 45.016C322.898 45.016 323.41 44.792 323.81 44.344C324.21 43.88 324.41 43.24 324.41 42.424C324.41 41.608 324.21 40.976 323.81 40.528C323.41 40.08 322.898 39.856 322.274 39.856C321.65 39.856 321.138 40.08 320.738 40.528C320.338 40.976 320.138 41.608 320.138 42.424C320.138 43.24 320.338 43.88 320.738 44.344C321.138 44.792 321.65 45.016 322.274 45.016ZM342.745 42.112C344.185 42.656 344.905 43.672 344.905 45.16C344.905 46.36 344.433 47.304 343.489 47.992C342.545 48.664 341.161 49 339.337 49H331.585V35.872H338.953C340.713 35.872 342.081 36.176 343.057 36.784C344.033 37.376 344.521 38.216 344.521 39.304C344.521 39.912 344.369 40.456 344.065 40.936C343.761 41.416 343.321 41.808 342.745 42.112ZM336.337 41.056H338.473C339.257 41.056 339.649 40.744 339.649 40.12C339.649 39.816 339.553 39.592 339.361 39.448C339.185 39.304 338.889 39.232 338.473 39.232H336.337V41.056ZM338.857 45.64C339.641 45.64 340.033 45.312 340.033 44.656C340.033 44.032 339.641 43.72 338.857 43.72H336.337V45.64H338.857ZM352.27 35.632C354.574 35.632 356.334 36.152 357.55 37.192C358.766 38.216 359.374 39.8 359.374 41.944V49H354.334V47.272C353.71 48.584 352.47 49.24 350.614 49.24C349.574 49.24 348.686 49.064 347.95 48.712C347.23 48.344 346.678 47.856 346.294 47.248C345.926 46.624 345.742 45.928 345.742 45.16C345.742 43.864 346.238 42.88 347.23 42.208C348.222 41.536 349.726 41.2 351.742 41.2H353.926C353.75 40.176 352.926 39.664 351.454 39.664C350.862 39.664 350.262 39.76 349.654 39.952C349.046 40.128 348.526 40.376 348.094 40.696L346.366 37.12C347.118 36.656 348.022 36.296 349.078 36.04C350.15 35.768 351.214 35.632 352.27 35.632ZM352.246 45.976C352.63 45.976 352.974 45.872 353.278 45.664C353.582 45.456 353.806 45.144 353.95 44.728V43.816H352.606C351.502 43.816 350.95 44.184 350.95 44.92C350.95 45.224 351.062 45.48 351.286 45.688C351.526 45.88 351.846 45.976 352.246 45.976ZM374.017 40.096H370.009V49H364.609V40.096H360.601V35.872H374.017V40.096ZM383.881 39.832C385.641 39.832 386.993 40.216 387.937 40.984C388.881 41.752 389.353 42.84 389.353 44.248C389.353 45.72 388.801 46.88 387.697 47.728C386.609 48.576 385.113 49 383.209 49H375.577V35.872H380.977V39.832H383.881ZM382.657 45.352C383.441 45.352 383.833 44.952 383.833 44.152C383.833 43.384 383.441 43 382.657 43H380.977V45.352H382.657ZM397.793 49.24C396.305 49.24 394.969 48.952 393.785 48.376C392.617 47.8 391.697 46.992 391.025 45.952C390.369 44.912 390.041 43.736 390.041 42.424C390.041 41.112 390.369 39.944 391.025 38.92C391.697 37.88 392.617 37.072 393.785 36.496C394.969 35.92 396.305 35.632 397.793 35.632C399.393 35.632 400.761 35.976 401.897 36.664C403.033 37.352 403.817 38.304 404.249 39.52L400.049 41.584C399.537 40.432 398.777 39.856 397.769 39.856C397.129 39.856 396.593 40.08 396.161 40.528C395.745 40.976 395.537 41.608 395.537 42.424C395.537 43.256 395.745 43.896 396.161 44.344C396.593 44.792 397.129 45.016 397.769 45.016C398.777 45.016 399.537 44.44 400.049 43.288L404.249 45.352C403.817 46.568 403.033 47.52 401.897 48.208C400.761 48.896 399.393 49.24 397.793 49.24ZM418.514 35.872V49H413.714V45.664H412.394L410.258 49H404.522L407.354 44.896C406.522 44.496 405.882 43.96 405.434 43.288C405.002 42.616 404.786 41.832 404.786 40.936C404.786 39.352 405.394 38.112 406.61 37.216C407.826 36.32 409.49 35.872 411.602 35.872H418.514ZM411.722 40.072C410.794 40.072 410.33 40.424 410.33 41.128C410.33 41.528 410.442 41.824 410.666 42.016C410.906 42.192 411.258 42.28 411.722 42.28H413.714V40.072H411.722ZM141.272 64.872H146.672V69.48H150.368V64.872H155.768V78H150.368V73.728H146.672V78H141.272V64.872ZM163.903 64.632C166.207 64.632 167.967 65.152 169.183 66.192C170.399 67.216 171.007 68.8 171.007 70.944V78H165.967V76.272C165.343 77.584 164.103 78.24 162.247 78.24C161.207 78.24 160.319 78.064 159.583 77.712C158.863 77.344 158.311 76.856 157.927 76.248C157.559 75.624 157.375 74.928 157.375 74.16C157.375 72.864 157.871 71.88 158.863 71.208C159.855 70.536 161.359 70.2 163.375 70.2H165.559C165.383 69.176 164.559 68.664 163.087 68.664C162.495 68.664 161.895 68.76 161.287 68.952C160.679 69.128 160.159 69.376 159.727 69.696L157.999 66.12C158.751 65.656 159.655 65.296 160.711 65.04C161.783 64.768 162.847 64.632 163.903 64.632ZM163.879 74.976C164.263 74.976 164.607 74.872 164.911 74.664C165.215 74.456 165.439 74.144 165.583 73.728V72.816H164.239C163.135 72.816 162.583 73.184 162.583 73.92C162.583 74.224 162.695 74.48 162.919 74.688C163.159 74.88 163.479 74.976 163.879 74.976ZM189.077 66.336C191.013 66.336 192.517 66.856 193.589 67.896C194.661 68.936 195.197 70.368 195.197 72.192C195.197 73.424 194.861 74.512 194.189 75.456C193.533 76.384 192.629 77.104 191.477 77.616C190.325 78.128 189.037 78.384 187.613 78.384C185.277 78.384 183.389 77.688 181.949 76.296C180.525 74.904 179.813 72.76 179.813 69.864C179.813 64.408 182.245 61.24 187.109 60.36L193.637 59.184L194.357 63.624L188.837 64.608C187.541 64.832 186.605 65.176 186.029 65.64C185.469 66.104 185.125 66.784 184.997 67.68C186.117 66.784 187.477 66.336 189.077 66.336ZM187.613 74.376C188.269 74.376 188.773 74.16 189.125 73.728C189.493 73.296 189.677 72.776 189.677 72.168C189.677 71.496 189.485 70.976 189.101 70.608C188.733 70.24 188.237 70.056 187.613 70.056C186.973 70.056 186.461 70.248 186.077 70.632C185.693 71 185.501 71.52 185.501 72.192C185.501 72.832 185.693 73.36 186.077 73.776C186.477 74.176 186.989 74.376 187.613 74.376ZM210.666 71.424C210.666 71.504 210.642 71.928 210.594 72.696H201.474C201.666 73.192 201.986 73.576 202.434 73.848C202.882 74.104 203.442 74.232 204.114 74.232C204.69 74.232 205.17 74.16 205.554 74.016C205.954 73.872 206.386 73.624 206.85 73.272L209.682 76.128C208.402 77.536 206.49 78.24 203.946 78.24C202.362 78.24 200.97 77.952 199.77 77.376C198.57 76.784 197.642 75.968 196.986 74.928C196.33 73.888 196.002 72.72 196.002 71.424C196.002 70.112 196.322 68.944 196.962 67.92C197.618 66.88 198.506 66.072 199.626 65.496C200.762 64.92 202.034 64.632 203.442 64.632C204.77 64.632 205.978 64.896 207.066 65.424C208.17 65.952 209.042 66.728 209.682 67.752C210.338 68.776 210.666 70 210.666 71.424ZM203.49 68.328C202.93 68.328 202.466 68.48 202.098 68.784C201.73 69.088 201.49 69.52 201.378 70.08H205.602C205.49 69.536 205.25 69.112 204.882 68.808C204.514 68.488 204.05 68.328 203.49 68.328ZM219.504 78.24C218.016 78.24 216.68 77.952 215.496 77.376C214.328 76.8 213.408 75.992 212.736 74.952C212.08 73.912 211.752 72.736 211.752 71.424C211.752 70.112 212.08 68.944 212.736 67.92C213.408 66.88 214.328 66.072 215.496 65.496C216.68 64.92 218.016 64.632 219.504 64.632C221.104 64.632 222.472 64.976 223.608 65.664C224.744 66.352 225.528 67.304 225.96 68.52L221.76 70.584C221.248 69.432 220.488 68.856 219.48 68.856C218.84 68.856 218.304 69.08 217.872 69.528C217.456 69.976 217.248 70.608 217.248 71.424C217.248 72.256 217.456 72.896 217.872 73.344C218.304 73.792 218.84 74.016 219.48 74.016C220.488 74.016 221.248 73.44 221.76 72.288L225.96 74.352C225.528 75.568 224.744 76.52 223.608 77.208C222.472 77.896 221.104 78.24 219.504 78.24ZM241.54 64.872V78H236.14V69.096H232.852V78H227.452V64.872H241.54ZM258.252 64.872V78H252.828V69.096H250.356L250.284 70.8C250.22 72.496 250.044 73.888 249.756 74.976C249.468 76.064 248.988 76.904 248.316 77.496C247.66 78.072 246.756 78.36 245.604 78.36C244.884 78.36 244.044 78.24 243.084 78L243.3 73.608C243.556 73.64 243.74 73.656 243.852 73.656C244.508 73.656 244.94 73.424 245.148 72.96C245.356 72.48 245.484 71.688 245.532 70.584L245.724 64.872H258.252ZM266.395 64.632C268.699 64.632 270.459 65.152 271.675 66.192C272.891 67.216 273.499 68.8 273.499 70.944V78H268.459V76.272C267.835 77.584 266.595 78.24 264.739 78.24C263.699 78.24 262.811 78.064 262.075 77.712C261.355 77.344 260.803 76.856 260.419 76.248C260.051 75.624 259.867 74.928 259.867 74.16C259.867 72.864 260.363 71.88 261.355 71.208C262.347 70.536 263.851 70.2 265.867 70.2H268.051C267.875 69.176 267.051 68.664 265.579 68.664C264.987 68.664 264.387 68.76 263.779 68.952C263.171 69.128 262.651 69.376 262.219 69.696L260.491 66.12C261.243 65.656 262.147 65.296 263.203 65.04C264.275 64.768 265.339 64.632 266.395 64.632ZM266.371 74.976C266.755 74.976 267.099 74.872 267.403 74.664C267.707 74.456 267.931 74.144 268.075 73.728V72.816H266.731C265.627 72.816 265.075 73.184 265.075 73.92C265.075 74.224 265.187 74.48 265.411 74.688C265.651 74.88 265.971 74.976 266.371 74.976ZM288.142 69.096H284.134V78H278.734V69.096H274.726V64.872H288.142V69.096ZM289.702 64.872H295.102V69.48H298.798V64.872H304.198V78H298.798V73.728H295.102V78H289.702V64.872ZM313.509 78.24C312.053 78.24 310.741 77.952 309.573 77.376C308.421 76.784 307.517 75.976 306.861 74.952C306.205 73.912 305.877 72.736 305.877 71.424C305.877 70.112 306.205 68.944 306.861 67.92C307.517 66.88 308.421 66.072 309.573 65.496C310.741 64.92 312.053 64.632 313.509 64.632C314.981 64.632 316.293 64.92 317.445 65.496C318.613 66.072 319.517 66.88 320.157 67.92C320.813 68.944 321.141 70.112 321.141 71.424C321.141 72.736 320.813 73.912 320.157 74.952C319.517 75.976 318.613 76.784 317.445 77.376C316.293 77.952 314.981 78.24 313.509 78.24ZM313.509 74.016C314.133 74.016 314.645 73.792 315.045 73.344C315.445 72.88 315.645 72.24 315.645 71.424C315.645 70.608 315.445 69.976 315.045 69.528C314.645 69.08 314.133 68.856 313.509 68.856C312.885 68.856 312.373 69.08 311.973 69.528C311.573 69.976 311.373 70.608 311.373 71.424C311.373 72.24 311.573 72.88 311.973 73.344C312.373 73.792 312.885 74.016 313.509 74.016ZM335.467 78L335.443 72.12L332.659 76.968H330.379L327.691 72V78H322.819V64.872H328.555L331.675 70.992L335.203 64.872H340.291L340.339 78H335.467ZM361.213 71.112C362.653 71.656 363.373 72.672 363.373 74.16C363.373 75.36 362.901 76.304 361.957 76.992C361.013 77.664 359.629 78 357.805 78H350.053V64.872H357.421C359.181 64.872 360.549 65.176 361.525 65.784C362.501 66.376 362.989 67.216 362.989 68.304C362.989 68.912 362.837 69.456 362.533 69.936C362.229 70.416 361.789 70.808 361.213 71.112ZM354.805 70.056H356.941C357.725 70.056 358.117 69.744 358.117 69.12C358.117 68.816 358.021 68.592 357.829 68.448C357.653 68.304 357.357 68.232 356.941 68.232H354.805V70.056ZM357.325 74.64C358.109 74.64 358.501 74.312 358.501 73.656C358.501 73.032 358.109 72.72 357.325 72.72H354.805V74.64H357.325ZM378.947 71.424C378.947 71.504 378.923 71.928 378.875 72.696H369.755C369.947 73.192 370.267 73.576 370.715 73.848C371.163 74.104 371.723 74.232 372.395 74.232C372.971 74.232 373.451 74.16 373.835 74.016C374.235 73.872 374.667 73.624 375.131 73.272L377.963 76.128C376.683 77.536 374.771 78.24 372.227 78.24C370.643 78.24 369.251 77.952 368.051 77.376C366.851 76.784 365.923 75.968 365.267 74.928C364.611 73.888 364.283 72.72 364.283 71.424C364.283 70.112 364.603 68.944 365.243 67.92C365.899 66.88 366.787 66.072 367.907 65.496C369.043 64.92 370.315 64.632 371.723 64.632C373.051 64.632 374.259 64.896 375.347 65.424C376.451 65.952 377.323 66.728 377.963 67.752C378.619 68.776 378.947 70 378.947 71.424ZM371.771 68.328C371.211 68.328 370.747 68.48 370.379 68.784C370.011 69.088 369.771 69.52 369.659 70.08H373.883C373.771 69.536 373.531 69.112 373.163 68.808C372.795 68.488 372.331 68.328 371.771 68.328ZM389.561 66.336C391.497 66.336 393.001 66.856 394.073 67.896C395.145 68.936 395.681 70.368 395.681 72.192C395.681 73.424 395.345 74.512 394.673 75.456C394.017 76.384 393.113 77.104 391.961 77.616C390.809 78.128 389.521 78.384 388.097 78.384C385.761 78.384 383.873 77.688 382.433 76.296C381.009 74.904 380.297 72.76 380.297 69.864C380.297 64.408 382.729 61.24 387.593 60.36L394.121 59.184L394.841 63.624L389.321 64.608C388.025 64.832 387.089 65.176 386.513 65.64C385.953 66.104 385.609 66.784 385.481 67.68C386.601 66.784 387.961 66.336 389.561 66.336ZM388.097 74.376C388.753 74.376 389.257 74.16 389.609 73.728C389.977 73.296 390.161 72.776 390.161 72.168C390.161 71.496 389.969 70.976 389.585 70.608C389.217 70.24 388.721 70.056 388.097 70.056C387.457 70.056 386.945 70.248 386.561 70.632C386.177 71 385.985 71.52 385.985 72.192C385.985 72.832 386.177 73.36 386.561 73.776C386.961 74.176 387.473 74.376 388.097 74.376ZM397.35 64.872H402.75V70.8L407.286 64.872H412.278V78H406.878V72.048L402.366 78H397.35V64.872ZM414.811 64.872H420.211V69.48H423.907V64.872H429.307V78H423.907V73.728H420.211V78H414.811V64.872ZM437.442 64.632C439.746 64.632 441.506 65.152 442.722 66.192C443.938 67.216 444.546 68.8 444.546 70.944V78H439.506V76.272C438.882 77.584 437.642 78.24 435.786 78.24C434.746 78.24 433.858 78.064 433.122 77.712C432.402 77.344 431.85 76.856 431.466 76.248C431.098 75.624 430.914 74.928 430.914 74.16C430.914 72.864 431.41 71.88 432.402 71.208C433.394 70.536 434.898 70.2 436.914 70.2H439.098C438.922 69.176 438.098 68.664 436.626 68.664C436.034 68.664 435.434 68.76 434.826 68.952C434.218 69.128 433.698 69.376 433.266 69.696L431.538 66.12C432.29 65.656 433.194 65.296 434.25 65.04C435.322 64.768 436.386 64.632 437.442 64.632ZM437.418 74.976C437.802 74.976 438.146 74.872 438.45 74.664C438.754 74.456 438.978 74.144 439.122 73.728V72.816H437.778C436.674 72.816 436.122 73.184 436.122 73.92C436.122 74.224 436.234 74.48 436.458 74.688C436.698 74.88 437.018 74.976 437.418 74.976ZM455.516 64.632C456.668 64.632 457.724 64.912 458.684 65.472C459.66 66.016 460.428 66.808 460.988 67.848C461.564 68.888 461.852 70.088 461.852 71.448C461.852 72.808 461.564 74.008 460.988 75.048C460.428 76.072 459.66 76.864 458.684 77.424C457.724 77.968 456.668 78.24 455.516 78.24C454.06 78.24 452.948 77.864 452.18 77.112V82.656H446.756V64.872H451.916V65.952C452.7 65.072 453.9 64.632 455.516 64.632ZM454.22 74.016C454.844 74.016 455.356 73.792 455.756 73.344C456.156 72.896 456.356 72.264 456.356 71.448C456.356 70.632 456.156 70 455.756 69.552C455.356 69.088 454.844 68.856 454.22 68.856C453.596 68.856 453.084 69.088 452.684 69.552C452.284 70 452.084 70.632 452.084 71.448C452.084 72.264 452.284 72.896 452.684 73.344C453.084 73.792 453.596 74.016 454.22 74.016ZM477.408 71.424C477.408 71.504 477.384 71.928 477.336 72.696H468.216C468.408 73.192 468.728 73.576 469.176 73.848C469.624 74.104 470.184 74.232 470.856 74.232C471.432 74.232 471.912 74.16 472.296 74.016C472.696 73.872 473.128 73.624 473.592 73.272L476.424 76.128C475.144 77.536 473.232 78.24 470.688 78.24C469.104 78.24 467.712 77.952 466.512 77.376C465.312 76.784 464.384 75.968 463.728 74.928C463.072 73.888 462.744 72.72 462.744 71.424C462.744 70.112 463.064 68.944 463.704 67.92C464.36 66.88 465.248 66.072 466.368 65.496C467.504 64.92 468.776 64.632 470.184 64.632C471.512 64.632 472.72 64.896 473.808 65.424C474.912 65.952 475.784 66.728 476.424 67.752C477.08 68.776 477.408 70 477.408 71.424ZM470.232 68.328C469.672 68.328 469.208 68.48 468.84 68.784C468.472 69.088 468.232 69.52 468.12 70.08H472.344C472.232 69.536 471.992 69.112 471.624 68.808C471.256 68.488 470.792 68.328 470.232 68.328Z" fill="#983E3E"/>
<circle cx="54.5" cy="54.5" r="48" stroke="#983E3E" stroke-width="5"/>
<circle cx="54.5" cy="54.5" r="54" stroke="#983E3E"/>
<path d="M29 53.5C28.1716 53.5 27.5 54.1716 27.5 55C27.5 55.8284 28.1716 56.5 29 56.5V53.5ZM80.0607 56.0607C80.6464 55.4749 80.6464 54.5251 80.0607 53.9393L70.5147 44.3934C69.9289 43.8076 68.9792 43.8076 68.3934 44.3934C67.8076 44.9792 67.8076 45.9289 68.3934 46.5147L76.8787 55L68.3934 63.4853C67.8076 64.0711 67.8076 65.0208 68.3934 65.6066C68.9792 66.1924 69.9289 66.1924 70.5147 65.6066L80.0607 56.0607ZM29 56.5H79V53.5H29V56.5Z" fill="#983E3E"/>
</svg>
